<?xml version="1.0" encoding="iso-8859-1"?>
<!-- Generator: Adobe Illustrator 19.0.0, SVG Export Plug-In . SVG Version: 6.00 Build 0)  -->
<svg version="1.1" id="Layer_1" xmlns="http://www.w3.org/2000/svg" xmlns:xlink="http://www.w3.org/1999/xlink" x="0px" y="0px"
	 viewBox="0 0 512 512" style="enable-background:new 0 0 512 512;" xml:space="preserve">
<path style="fill:#9EC6B6;" d="M459.661,244.991c0,127.62-102.899,231.078-229.831,231.078S0,372.612,0,244.991
	S102.899,13.913,229.831,13.913S459.661,117.37,459.661,244.991z"/>
<path style="fill:#97BAA8;" d="M405.965,96.56c33.508,40.152,53.697,91.917,53.697,148.432
	c0,127.62-102.899,231.078-229.831,231.078S0,372.611,0,244.991c0-56.514,20.189-108.28,53.697-148.432
	c50.392,24.54,110.964,38.857,176.134,38.857S355.573,121.099,405.965,96.56z"/>
<path style="fill:#78A097;" d="M459.026,227.838c0.414,5.664,0.636,11.382,0.636,17.153c0,127.62-102.899,231.078-229.831,231.078
	S0,372.611,0,244.991c0-5.771,0.221-11.489,0.636-17.153c67.8,18.665,145.971,29.305,229.196,29.305
	S391.226,246.502,459.026,227.838z"/>
<path style="fill:#5B7F81;" d="M405.528,393.941c-42.16,50.219-105.217,82.128-175.697,82.128S96.293,444.161,54.133,393.941
	c50.533-23.634,110.874-37.382,175.697-37.382S354.995,370.306,405.528,393.941z"/>
<path style="fill:#B1D7C5;" d="M315.302,244.991c0,127.62-38.266,231.078-85.472,231.078s-85.472-103.457-85.472-231.078
	s38.268-231.078,85.473-231.078S315.302,117.37,315.302,244.991z"/>
<path style="fill:#97BAA8;" d="M315.266,238.473c0.022,2.166,0.036,4.338,0.036,6.518c0,127.62-38.266,231.078-85.472,231.078
	c-47.204,0-85.472-103.457-85.472-231.078c0-2.18,0.013-4.352,0.036-6.518L315.266,238.473L315.266,238.473z"/>
<path style="fill:#B1D7C5;" d="M156.264,362.671c-7.631-34.586-11.905-74.482-11.905-117.68c0-2.18,0.013-4.352,0.036-6.518h170.872
	c0.022,2.166,0.036,4.338,0.036,6.518c0,43.198-4.389,83.62-12.021,118.206L156.264,362.671z"/>
<path style="fill:#CAEEC5;" d="M144.408,253.403c-0.032-2.609-0.05-5.781-0.05-8.411c0-42.485,4.116-81.684,11.516-115.888
	c24.743,4.513,50.765,6.314,77.43,6.314c24.27,0,47.782-2.554,70.489-6.314c7.244,33.94,11.509,73.887,11.509,115.888
	c0,2.63-0.017,5.754-0.049,8.363L144.408,253.403z"/>
<path style="fill:#7E9822;" d="M486.713,210.324c-0.18,143.28-115.784,259.183-258.21,258.871
	C228.679,325.917,344.281,210.015,486.713,210.324L486.713,210.324z"/>
<path style="fill:#B1CD3E;" d="M512,393.139c-56.801,99.908-183.316,134.56-282.576,77.391
	C286.221,370.622,412.733,335.971,512,393.139L512,393.139z"/>
<path style="fill:#677C0F;" d="M242.357,477.378c-4.355-2.118-8.672-4.392-12.934-6.846c2.439-4.291,5.015-8.451,7.704-12.498
	l99.228-27.176c5.311-1.455,10.792,1.695,12.239,7.037c1.447,5.34-1.686,10.851-6.999,12.306L242.357,477.378z"/>
<g>
</g>
<g>
</g>
<g>
</g>
<g>
</g>
<g>
</g>
<g>
</g>
<g>
</g>
<g>
</g>
<g>
</g>
<g>
</g>
<g>
</g>
<g>
</g>
<g>
</g>
<g>
</g>
<g>
</g>
</svg>
