<?xml version="1.0" encoding="iso-8859-1"?>
<!-- Generator: Adobe Illustrator 19.0.0, SVG Export Plug-In . SVG Version: 6.00 Build 0)  -->
<svg version="1.1" id="Layer_1" xmlns="http://www.w3.org/2000/svg" xmlns:xlink="http://www.w3.org/1999/xlink" x="0px" y="0px"
	 viewBox="0 0 512.001 512.001" style="enable-background:new 0 0 512.001 512.001;" xml:space="preserve">
<path style="fill:#874D20;" d="M436.393,178.872v227.829c0,37.595-30.3,68.355-67.335,68.355H218.254H67.45
	c-37.034,0-67.335-30.76-67.335-68.355V178.872c0-24.71-2.375-26.307,14.442-38.657l88.73-63.77
	c29.207-20.994,58.132-42.055,87.629-62.978c12.634-8.961,20.048-13.403,27.339-13.467c7.292,0.063,14.704,4.506,27.337,13.467
	c29.497,20.923,58.421,41.984,87.629,62.978l88.73,63.77C438.769,152.566,436.393,154.164,436.393,178.872z"/>
<path style="fill:#A57541;" d="M145.524,475.057v-279.02h144.767v282.298L145.524,475.057z"/>
<path style="fill:#391B10;" d="M208.639,326.318v18.456c0,5.579-4.454,10.1-9.949,10.1c-5.495,0-9.949-4.522-9.949-10.1v-18.456
	c0-5.579,4.454-10.101,9.949-10.101C204.185,316.217,208.639,320.74,208.639,326.318z"/>
<path style="fill:#B1CD3E;" d="M241.887,506.061c-1.573-16.198-1.422-32.821,0.641-49.652
	c14.997-122.282,124.802-209.069,245.257-193.844c7.876,0.996,15.595,2.413,23.156,4.206c1.575,16.198,1.422,32.821-0.641,49.652
	c-14.995,122.282-124.8,209.069-245.257,193.844C257.169,509.271,249.441,507.855,241.887,506.061L241.887,506.061z"/>
<path style="fill:#CDE044;" d="M241.827,505.34c-1.498-15.971-1.331-32.349,0.702-48.93
	c14.996-122.282,124.801-209.069,245.256-193.844c7.876,0.996,15.595,2.413,23.156,4.206c0.046,0.474,0.076,0.953,0.119,1.428
	L241.827,505.34z"/>
<path style="fill:#677C0F;" d="M389.085,375.147c3.621,4.196,3.206,10.577-0.927,14.253L254.135,508.596
	c-4.128-0.736-8.214-1.577-12.248-2.536c-0.407-4.192-0.693-8.412-0.866-12.658l134.024-119.197
	C379.177,370.532,385.463,370.952,389.085,375.147z"/>
<g>
</g>
<g>
</g>
<g>
</g>
<g>
</g>
<g>
</g>
<g>
</g>
<g>
</g>
<g>
</g>
<g>
</g>
<g>
</g>
<g>
</g>
<g>
</g>
<g>
</g>
<g>
</g>
<g>
</g>
</svg>
