<?xml version="1.0" encoding="iso-8859-1"?>
<!-- Generator: Adobe Illustrator 19.0.0, SVG Export Plug-In . SVG Version: 6.00 Build 0)  -->
<svg version="1.1" id="Layer_1" xmlns="http://www.w3.org/2000/svg" xmlns:xlink="http://www.w3.org/1999/xlink" x="0px" y="0px"
	 viewBox="0 0 512 512" style="enable-background:new 0 0 512 512;" xml:space="preserve">
<path style="fill:#97BAA8;" d="M301.561,44.168v66.024c0,5.533-4.484,10.017-10.017,10.017s-10.017-4.484-10.017-10.017V44.168
	c0-13.308-10.773-24.133-24.015-24.133h-3.017c-13.242,0-24.015,10.825-24.015,24.133v66.024c0,5.533-4.484,10.017-10.017,10.017
	s-10.017-4.484-10.017-10.017V44.168C210.444,19.813,230.205,0,254.493,0h3.017C281.801,0,301.561,19.813,301.561,44.168z"/>
<path style="fill:#CAEEC5;" d="M58.434,466.628V266.535c0-109.032,88.901-198.236,197.564-198.236h0.003
	c108.663,0,197.564,89.214,197.564,198.236v200.093H58.434z"/>
<path style="fill:#97BAA8;" d="M453.518,467.478C451.542,492.143,363.873,512,256.001,512c-107.875,0-195.544-19.857-197.52-44.522
	c1.976-24.665,89.645-44.522,197.52-44.522C363.873,422.957,451.542,442.813,453.518,467.478z"/>
<path style="fill:#5B7F81;" d="M342.214,467.478c-0.863,10.766-39.129,19.433-86.213,19.433c-47.086,0-85.353-8.667-86.214-19.433
	c0.863-10.766,39.129-19.433,86.214-19.433C303.085,448.046,341.351,456.712,342.214,467.478z"/>
<path style="fill:#FF7B00;" d="M320.626,341.843c-26.106,39.188-56.321,84.594-60.969,91.68c-1.923,2.932-5.123,4.523-8.386,4.523
	c-1.885,0-3.791-0.531-5.485-1.643c-4.626-3.035-5.916-9.245-2.882-13.871c4.065-6.197,27.464-41.372,50.677-76.227h-66.695
	c-16.944-0.131-30.266-0.235-35.468-9.966c-5.142-9.618,1.992-20.481,10.252-33.061c5.685-8.666,41.046-61.791,63.171-95.018
	l-48.255,9.522c-5.425,1.073-10.695-2.46-11.767-7.888c-1.071-5.427,2.46-10.696,7.888-11.767l71.869-14.182
	c2.601-0.516,5.31,0.028,7.517,1.507c2.206,1.479,3.735,3.775,4.25,6.381l14.18,71.868c1.071,5.427-2.461,10.696-7.888,11.767
	c-0.654,0.129-1.307,0.191-1.95,0.191c-4.687,0-8.875-3.307-9.817-8.081l-9.476-48.027c-22.12,33.22-57.325,86.111-62.973,94.72
	c-1.432,2.18-4.916,7.485-7.026,11.416c4.873,0.499,12.219,0.555,15.569,0.581h85.323c3.694,0,7.089,2.032,8.833,5.289
	C322.863,334.817,322.673,338.769,320.626,341.843z"/>
<g>
</g>
<g>
</g>
<g>
</g>
<g>
</g>
<g>
</g>
<g>
</g>
<g>
</g>
<g>
</g>
<g>
</g>
<g>
</g>
<g>
</g>
<g>
</g>
<g>
</g>
<g>
</g>
<g>
</g>
</svg>
