<?xml version="1.0" encoding="iso-8859-1"?>
<!-- Generator: Adobe Illustrator 19.0.0, SVG Export Plug-In . SVG Version: 6.00 Build 0)  -->
<svg version="1.1" id="Layer_1" xmlns="http://www.w3.org/2000/svg" xmlns:xlink="http://www.w3.org/1999/xlink" x="0px" y="0px"
	 viewBox="0 0 512 512" style="enable-background:new 0 0 512 512;" xml:space="preserve">
<path style="fill:#677C0F;" d="M346.079,275.343c2.202,6.974,3.389,14.353,3.389,21.993c0,42.98-37.447,77.83-83.635,77.83
	c-2.759,0-5.487-0.125-8.178-0.368c-21.061-1.907-42.177-3.15-63.32-2.779l-3.269,0.057l-3.269-0.057
	c-21.143-0.371-42.259,0.874-63.32,2.779c-2.69,0.244-5.418,0.368-8.178,0.368c-46.188,0-83.635-34.849-83.635-77.83
	c0-7.64,1.188-15.018,3.389-21.993C14.015,258.108,0,232.27,0,203.385c0-48.827,40.031-88.947,91.215-93.509
	c8.796-43.54,49.863-76.485,99.204-76.485c0.216,0,0.431,0.009,0.647,0.01c0.216-0.001,0.431-0.01,0.647-0.01
	c49.341,0,90.408,32.945,99.204,76.485c51.186,4.561,91.215,44.681,91.215,93.509C382.132,232.27,368.117,258.108,346.079,275.343z"
	/>
<path style="fill:#5A6807;" d="M346.079,275.343c2.202,6.974,3.389,14.353,3.389,21.993c0,42.98-37.447,77.83-83.635,77.83
	c-2.759,0-5.487-0.125-8.178-0.368c-21.061-1.907-42.177-3.15-63.32-2.779l-3.269,0.057l-3.269-0.057
	c-21.143-0.371-42.26,0.874-63.32,2.779c-2.69,0.244-5.418,0.368-8.178,0.368c-46.188,0-83.635-34.849-83.635-77.83
	c0-7.64,1.188-15.018,3.389-21.993c-0.524-0.41-1.035-0.834-1.549-1.253c11.066,1.632,22.384,2.488,33.906,2.488
	c80.771,0,151.808-41.543,192.844-104.371c13.487-18.823,24.267-39.707,31.755-62.097c50.176,5.456,89.124,45.118,89.124,93.275
	C382.132,232.27,368.117,258.108,346.079,275.343z"/>
<path style="fill:#FFCE76;" d="M490.911,386.012c-4.862,14.507-9.68,28.697-14.325,42.079c-4.546,13.094-9.347,26.614-14.435,40.538
	c-2.244,6.167-7.56,9.906-13.17,9.908v0.071h-36.586h-34.259h-48.823c-7.889,0-14.286-7.149-14.286-15.968
	c0-0.228,0.006-0.46,0.013-0.685c-1.028-25.272-11.217-36.616-18.551-44.782c-2.783-3.103-5.283-5.887-7.444-9.052
	c-15.419-22.587-22.547-41.826-30.976-64.591c-3.613-9.755-7.489-20.221-12.975-33.073c-2.505-5.872-6.16-19.11-6.423-24.705
	c-0.668-13.894,4.543-31.009,19.241-31.524c6.367-0.22,13.364,1.612,17.773,4.64c8.574,5.892,15.213,15.71,20.553,25.995
	c4.202,8.101,6.025,18.222,8.938,25.233c1.103,2.662,2.186,4.935,3.237,6.844c9.504,17.261,28.951,7.873,35.15-11.8
	c7.461-23.681,15.969-56.79,16.827-78.818c0.922-23.461,1.812-46.111,12.895-57.79c12.128-12.791,25.258-14.909,39.924-9.16
	l3.93,25.126c21.186-11.716,34.355,3.105,42.231,21.222c7.87,18.09,10.408,25.334,10.62,32.456h16.462
	c2.75,0.303,9.13,3.922,9.864,5.276c6.991,12.804,12.438,25.511,14.529,38.538C515.372,311.623,506.145,340.528,490.911,386.012z"/>
<path style="fill:#FFA754;" d="M489.915,239.308c-0.223,2.223-0.534,4.614-0.913,7.297c-0.375,2.671-0.893,5.678-1.581,9.185
	c-1.631,8.208-3.099,16.238-4.518,24.005c-3.427,18.746-6.663,36.453-11.404,52.255c-1.299,4.332-5.281,7.13-9.593,7.131
	c-0.951,0-1.918-0.136-2.876-0.422c-5.3-1.583-8.311-7.152-6.725-12.439c4.423-14.743,7.563-31.922,10.888-50.109
	c1.434-7.84,2.915-15.948,4.571-24.283c0.613-3.125,1.072-5.781,1.397-8.096c0.333-2.359,0.616-4.368,0.809-6.193
	c0.009,0.179,0.017,0.36,0.021,0.539h16.462C487.335,238.272,488.592,238.712,489.915,239.308z M433.416,181.045v-0.609
	c-4.814-0.45-10.212,0.708-16.275,4.062c-2.332,3.139-3.407,7.032-3.035,10.921c1.723,18.037,2.487,34.071-0.53,47.645
	c-6.504,29.262-12.285,54.807-17.135,70.892c-1.589,5.269,1.193,11.036,6.447,12.71c1.016,0.324,2.045,0.477,3.055,0.477
	c4.3,0,8.277-2.785,9.584-7.105c5.071-16.733,10.975-42.802,17.608-72.649C437.222,228.995,433.218,181.112,433.416,181.045z"/>
<path style="fill:#BA9052;" d="M203.031,196.924v246.055c0,5.52-4.484,9.994-10.017,9.994c-5.533,0-10.017-4.474-10.017-9.994
	V196.924c0-5.52,4.484-9.994,10.017-9.994C198.547,186.93,203.031,191.404,203.031,196.924z"/>
<path style="fill:#7E9822;" d="M211.938,442.976c0,5.52-4.484,9.994-10.017,9.994h-47.469c-5.533,0-10.017-4.474-10.017-9.994
	s4.484-9.994,10.017-9.994h47.469C207.453,432.982,211.938,437.456,211.938,442.976z"/>
<path style="fill:#B1CD3E;" d="M337.552,51.154c6.305,49.4-28.727,94.55-78.248,100.838h0.001
	c-6.303-49.404,28.73-94.546,78.249-100.838H337.552z"/>
<g>
</g>
<g>
</g>
<g>
</g>
<g>
</g>
<g>
</g>
<g>
</g>
<g>
</g>
<g>
</g>
<g>
</g>
<g>
</g>
<g>
</g>
<g>
</g>
<g>
</g>
<g>
</g>
<g>
</g>
</svg>
