<?xml version="1.0" encoding="iso-8859-1"?>
<!-- Generator: Adobe Illustrator 19.0.0, SVG Export Plug-In . SVG Version: 6.00 Build 0)  -->
<svg version="1.1" id="Layer_1" xmlns="http://www.w3.org/2000/svg" xmlns:xlink="http://www.w3.org/1999/xlink" x="0px" y="0px"
	 viewBox="0 0 512 512" style="enable-background:new 0 0 512 512;" xml:space="preserve">
<path style="fill:#677C0F;" d="M252.112,406.191c-24.743,0-49.434,1.705-74.053,4.187c-3.573,0.361-7.202,0.545-10.878,0.545
	c-55.346,0-100.215-41.896-100.215-93.58c0-9.181,1.419-18.054,4.064-26.439c-26.41-20.719-43.204-51.784-43.204-86.516
	c0-58.706,47.962-106.949,109.298-112.431C147.664,39.61,196.874,0,255.997,0c59.119,0,108.333,39.609,118.873,91.957
	c61.334,5.483,109.304,53.724,109.304,112.431c0,34.73-16.797,65.795-43.206,86.516c2.639,8.386,4.06,17.258,4.06,26.439
	c0,51.684-44.867,93.58-100.215,93.58c-3.673,0-7.3-0.185-10.872-0.544c-24.621-2.482-49.312-4.188-74.057-4.188L252.112,406.191
	L252.112,406.191z"/>
<path style="fill:#5A6807;" d="M440.968,290.904c2.639,8.386,4.06,17.258,4.06,26.439c0,51.684-44.867,93.58-100.215,93.58
	c-3.673,0-7.3-0.185-10.872-0.544c-24.621-2.482-49.312-4.188-74.057-4.188h-7.771c-24.743,0-49.434,1.705-74.053,4.187
	c-3.573,0.361-7.202,0.545-10.878,0.545c-55.346,0-100.215-41.896-100.215-93.58c0-9.181,1.419-18.054,4.064-26.439
	c-0.008-0.006-0.014-0.012-0.022-0.018c10.781,1.203,21.732,1.842,32.834,1.842c129.276,0,232.186-84.56,271.028-200.771
	c62.835,4.599,109.304,55.91,109.304,112.431C484.174,239.12,467.377,270.185,440.968,290.904z"/>
<path style="fill:#FFCE76;" d="M255.997,141.956c20.039,0,36.29,16.263,36.29,36.323c0,20.063-16.25,36.324-36.29,36.324
	s-36.287-16.262-36.287-36.324C219.709,158.219,235.957,141.956,255.997,141.956L255.997,141.956z"/>
<path style="fill:#FFBB5E;" d="M292.289,178.28c0,20.063-16.25,36.324-36.29,36.324c-14.568,0-27.125-8.598-32.899-20.999
	c4.645,2.162,9.817,3.376,15.277,3.376c20.039,0,36.29-16.262,36.29-36.324c0-5.476-1.219-10.666-3.387-15.323
	C283.682,151.107,292.289,163.684,292.289,178.28z"/>
<path style="fill:#B1CD3E;" d="M396.594,167.149l-58.829,65.163c-17.874,19.806-37.27,39.44-60.516,42.982
	c-3.522,0.535-11.025,0.668-17.583,0.668c-0.934,0-1.849-0.002-2.731-0.007c-4.201,0.023-17.633,0.032-22.191-0.663
	c-23.246-3.544-42.644-23.177-60.522-42.982l-58.825-65.162c-3.708-4.106-3.384-10.44,0.723-14.148
	c4.107-3.708,10.44-3.383,14.148,0.723l58.825,65.162c14.777,16.372,31.943,34.051,48.669,36.6
	c1.394,0.208,8.361,0.488,18.946,0.435c0.056-0.001,0.111-0.001,0.167-0.001h0.115c0.056,0,0.111,0,0.167,0.001
	c10.86,0.053,15.842-0.247,17.073-0.434c16.721-2.549,33.884-20.228,48.66-36.599l58.829-65.164
	c3.708-4.106,10.042-4.43,14.148-0.723C399.978,156.708,400.302,163.042,396.594,167.149z M255.996,302.322
	c-5.533,0-10.017,4.484-10.017,10.017v84.922c0,5.533,4.484,10.017,10.017,10.017c5.533,0,10.017-4.484,10.017-10.017v-84.922
	C266.013,306.806,261.528,302.322,255.996,302.322z"/>
<path style="fill:#234848;" d="M338.019,501.978c0,5.533-4.484,10.017-10.017,10.017h-30.702c-4.286,0.084-8.185-2.528-9.656-6.637
	l-31.647-88.395l-31.645,88.395c-1.445,4.035-5.26,6.642-9.425,6.642c-0.097,0-0.194-0.001-0.292-0.004h-30.643
	c-5.533,0-10.017-4.484-10.017-10.017c0-5.533,4.484-10.017,10.017-10.017h23.876l38.112-106.456h20.035l38.113,106.456h23.875
	C333.535,491.961,338.019,496.445,338.019,501.978z"/>
<g>
</g>
<g>
</g>
<g>
</g>
<g>
</g>
<g>
</g>
<g>
</g>
<g>
</g>
<g>
</g>
<g>
</g>
<g>
</g>
<g>
</g>
<g>
</g>
<g>
</g>
<g>
</g>
<g>
</g>
</svg>
