<?xml version="1.0" encoding="iso-8859-1"?>
<!-- Generator: Adobe Illustrator 19.0.0, SVG Export Plug-In . SVG Version: 6.00 Build 0)  -->
<svg version="1.1" id="Layer_1" xmlns="http://www.w3.org/2000/svg" xmlns:xlink="http://www.w3.org/1999/xlink" x="0px" y="0px"
	 viewBox="0 0 512 512" style="enable-background:new 0 0 512 512;" xml:space="preserve">
<path style="fill:#677C0F;" d="M57.898,86.557c169.543,0,226.659,0,396.206,0l-42.379,383.501
	c-2.549,23.066-23.4,41.942-46.34,41.942c-110.395,0-108.371,0-218.763,0c-22.941,0-43.797-18.873-46.346-41.942L57.898,86.557
	L57.898,86.557z"/>
<path style="fill:#5A6809;" d="M455.494,86.557l-42.379,383.501C410.566,493.124,389.714,512,366.775,512
	c-55.198,0-82.291,0-109.383,0V86.557C314.056,86.557,370.721,86.557,455.494,86.557z"/>
<path style="fill:#DCF451;" d="M362.961,365.601c-4.438,8.288-14.788,8.369-26.771,8.462H279.1c-0.252,0.02-0.505,0.029-0.761,0.03
	c-8.871,0.013-29.379,0.027-50.001,0.027c-21.304,0-42.731-0.014-51.59-0.057c-12.429-0.06-23.164-0.112-27.686-8.494
	c-4.38-8.116,0.966-16.364,6.625-25.095l29.93-45.247c11.34-17.211,41.46-62.929,49.634-75.122
	c3.281-4.894,6.006-8.708,8.639-11.418c4.129-4.244,8.623-6.175,13.336-5.759c8.351,0.745,13.486,8.348,18.922,16.397
	c3.099,4.589,1.894,10.822-2.689,13.923c-4.583,3.102-10.811,1.897-13.91-2.691c-1.406-2.081-2.602-3.788-3.587-5.116
	c-1.3,1.734-2.739,3.843-4.078,5.839c-8.129,12.125-38.216,57.795-49.544,74.987l-2.826,4.289l-27.074,40.913
	c-0.567,0.874-1.086,1.688-1.56,2.442c1.703,0.053,3.692,0.086,5.963,0.096c17.156,0.083,81.623,0.058,100.687,0.031
	c0.262-0.021,0.525-0.031,0.791-0.031h57.788c1.026-0.008,2.965-0.023,5.016-0.085c-0.593-0.945-1.261-1.986-2.003-3.122
	c-3.258-4.989-21.284-32.238-38.236-57.844l-4.893,24.938c-0.938,4.782-5.128,8.096-9.818,8.096c-0.64,0-1.29-0.061-1.942-0.189
	c-5.428-1.067-8.964-6.338-7.898-11.773l9.596-48.903c0.512-2.613,2.041-4.914,4.251-6.397c2.209-1.484,4.919-2.026,7.526-1.507
	l48.634,9.65c5.426,1.076,8.954,6.353,7.878,11.786c-1.075,5.432-6.347,8.962-11.774,7.886l-25.061-4.973
	c17.03,25.72,35.214,53.211,38.508,58.254C361.79,348.859,367.359,357.387,362.961,365.601z"/>
<path style="fill:#484F00;" d="M307.895,10.027c0,5.539-4.484,10.027-10.017,10.027H214.49c-5.533,0-10.017-4.49-10.017-10.027
	C204.473,4.489,208.957,0,214.49,0h83.387C303.41,0,307.895,4.489,307.895,10.027z"/>
<path style="fill:#677C0F;" d="M483.061,23.397c0,5.539-4.484,10.027-10.017,10.027H38.957c-5.533,0-10.017-4.489-10.017-10.027
	S33.424,13.37,38.957,13.37h434.087C478.576,13.37,483.061,17.859,483.061,23.397z"/>
<g>
</g>
<g>
</g>
<g>
</g>
<g>
</g>
<g>
</g>
<g>
</g>
<g>
</g>
<g>
</g>
<g>
</g>
<g>
</g>
<g>
</g>
<g>
</g>
<g>
</g>
<g>
</g>
<g>
</g>
</svg>
