<?xml version="1.0" encoding="iso-8859-1"?>
<!-- Generator: Adobe Illustrator 19.0.0, SVG Export Plug-In . SVG Version: 6.00 Build 0)  -->
<svg version="1.1" id="Layer_1" xmlns="http://www.w3.org/2000/svg" xmlns:xlink="http://www.w3.org/1999/xlink" x="0px" y="0px"
	 viewBox="0 0 512 512" style="enable-background:new 0 0 512 512;" xml:space="preserve">
<path style="fill:#677C0F;" d="M198.73,406.19c-9.919,3.069-20.527,4.732-31.545,4.732c-55.348,0-100.222-41.896-100.222-93.579
	c0-9.181,1.426-18.052,4.063-26.437c-26.407-20.72-43.201-51.787-43.201-86.519c0-58.704,47.968-106.946,109.296-112.429
	C147.666,39.61,196.873,0,255.997,0s108.334,39.609,118.875,91.957c61.329,5.483,109.302,53.723,109.302,112.429
	c0,34.733-16.794,65.798-43.204,86.519c2.64,8.383,4.063,17.256,4.063,26.437c0,51.684-44.87,93.579-100.222,93.579
	c-11.015,0-21.623-1.663-31.545-4.732H198.73z"/>
<path style="fill:#5A6809;" d="M440.969,290.905c2.64,8.383,4.063,17.254,4.063,26.436c0,51.684-44.87,93.579-100.222,93.579
	c-3.672,0-7.298-0.185-10.869-0.544c-24.613-2.481-49.297-4.187-74.034-4.187h-7.816c-24.736,0-49.419,1.704-74.03,4.186
	c-3.573,0.361-7.201,0.545-10.876,0.545c-55.348,0-100.222-41.896-100.222-93.579c0-9.181,1.426-18.052,4.063-26.436
	c-0.93-0.73-1.847-1.477-2.754-2.233c139.11-8.16,256.388-87.437,306.442-197.405c0.048,0.232,0.109,0.459,0.156,0.691
	c61.329,5.483,109.302,53.723,109.302,112.429C484.173,239.118,467.38,270.185,440.969,290.905z"/>
<path style="fill:#CDE044;" d="M311.086,266.232c-22.309,33.525-46.865,70.469-50.635,76.216c-1.923,2.932-5.123,4.525-8.386,4.525
	c-1.884,0-3.791-0.531-5.485-1.642c-4.626-3.034-5.917-9.245-2.883-13.871c3.211-4.895,21.324-32.155,40.351-60.759h-52.233
	c-14.645-0.114-26.152-0.203-30.952-9.175c-4.749-8.879,1.431-18.301,8.589-29.21c4.073-6.212,27.07-40.818,50.224-75.627
	l-36.086,7.128c-5.429,1.072-10.696-2.459-11.769-7.886c-1.072-5.427,2.459-10.696,7.886-11.769l59.69-11.79
	c2.607-0.514,5.311,0.028,7.52,1.507c2.207,1.48,3.735,3.777,4.25,6.383l11.779,59.749c1.07,5.427-2.462,10.695-7.89,11.766
	c-0.653,0.129-1.306,0.19-1.948,0.191c-4.688,0-8.877-3.308-9.817-8.082l-7.075-35.887c-23.086,34.707-45.97,69.14-50.01,75.304
	c-1.853,2.826-3.345,5.192-4.468,7.091c3.73,0.223,8.162,0.256,10.155,0.273h70.852c3.693,0,7.087,2.031,8.83,5.287
	C313.32,259.207,313.132,263.158,311.086,266.232z"/>
<path style="fill:#663310;" d="M266.015,380.015v121.967c0,5.533-4.484,10.017-10.017,10.017s-10.017-4.484-10.017-10.017V380.015
	c0-5.533,4.484-10.017,10.017-10.017S266.015,374.483,266.015,380.015z"/>
<path style="fill:#677C0F;" d="M341.197,501.979c0,5.533-4.484,10.017-10.017,10.017H180.817c-5.533,0-10.017-4.484-10.017-10.017
	c0-5.533,4.484-10.017,10.017-10.017H331.18C336.713,491.962,341.197,496.446,341.197,501.979z"/>
<g>
</g>
<g>
</g>
<g>
</g>
<g>
</g>
<g>
</g>
<g>
</g>
<g>
</g>
<g>
</g>
<g>
</g>
<g>
</g>
<g>
</g>
<g>
</g>
<g>
</g>
<g>
</g>
<g>
</g>
</svg>
