<?xml version="1.0" encoding="iso-8859-1"?>
<!-- Generator: Adobe Illustrator 19.0.0, SVG Export Plug-In . SVG Version: 6.00 Build 0)  -->
<svg version="1.1" id="Layer_1" xmlns="http://www.w3.org/2000/svg" xmlns:xlink="http://www.w3.org/1999/xlink" x="0px" y="0px"
	 viewBox="0 0 512 512" style="enable-background:new 0 0 512 512;" xml:space="preserve">
<path style="fill:#97BAA8;" d="M301.561,44.168v66.024c0,5.533-4.484,10.017-10.017,10.017s-10.017-4.484-10.017-10.017V44.168
	c0-13.308-10.773-24.133-24.015-24.133h-3.017c-13.242,0-24.015,10.825-24.015,24.133v66.024c0,5.533-4.484,10.017-10.017,10.017
	s-10.017-4.484-10.017-10.017V44.168C210.444,19.813,230.205,0,254.493,0h3.017C281.801,0,301.561,19.813,301.561,44.168z"/>
<path style="fill:#CAEEC5;" d="M58.434,466.628V266.535c0-109.032,88.901-198.236,197.564-198.236h0.003
	c108.663,0,197.564,89.214,197.564,198.236v200.093H58.434z"/>
<path style="fill:#97BAA8;" d="M453.518,467.478C451.542,492.143,363.873,512,256.001,512c-107.875,0-195.544-19.857-197.52-44.522
	c1.976-24.665,89.645-44.522,197.52-44.522C363.873,422.957,451.542,442.813,453.518,467.478z"/>
<g>
	<path style="fill:#5B7F81;" d="M342.214,467.478c-0.863,10.766-39.129,19.433-86.213,19.433c-47.086,0-85.353-8.667-86.214-19.433
		c0.863-10.766,39.129-19.433,86.214-19.433C303.085,448.046,341.351,456.712,342.214,467.478z"/>
	<path style="fill:#5B7F81;" d="M255.995,419.601c-47.42,0-85.866-38.445-85.866-85.87c0-51.916,56.824-118.495,85.866-156.241
		c29.536,38.233,85.875,104.326,85.875,156.241C341.87,381.156,303.421,419.601,255.995,419.601L255.995,419.601z"/>
</g>
<path style="fill:#415E5C;" d="M341.87,333.73c0,47.426-38.449,85.87-85.875,85.87c-45.021,0-81.928-34.661-85.549-78.754
	c5.059,0.928,10.266,1.439,15.593,1.439c47.426,0,85.875-38.445,85.875-85.87c0-18.484-7.145-38.766-17.676-58.947
	c-3.345-6.409-2.72-14.159,1.688-19.888c0.023-0.03,0.047-0.06,0.07-0.09C285.531,215.722,341.87,281.815,341.87,333.73z"/>
<g>
</g>
<g>
</g>
<g>
</g>
<g>
</g>
<g>
</g>
<g>
</g>
<g>
</g>
<g>
</g>
<g>
</g>
<g>
</g>
<g>
</g>
<g>
</g>
<g>
</g>
<g>
</g>
<g>
</g>
</svg>
