<?xml version="1.0" encoding="iso-8859-1"?>
<!-- Generator: Adobe Illustrator 19.0.0, SVG Export Plug-In . SVG Version: 6.00 Build 0)  -->
<svg version="1.1" id="Layer_1" xmlns="http://www.w3.org/2000/svg" xmlns:xlink="http://www.w3.org/1999/xlink" x="0px" y="0px"
	 viewBox="0 0 512 512" style="enable-background:new 0 0 512 512;" xml:space="preserve">
<path style="fill:#FCE64C;" d="M499.455,256L512,346.105c0,23.45-19.19,42.634-42.648,42.634h-8.215H339.514h-95.361H120.556h-9.352
	c-23.456,0-42.644-19.235-42.644-42.677l5.088-50.222L77.342,256H499.455z"/>
<path style="fill:#97BAA8;" d="M506.342,305.467L512,346.105c0,23.45-19.19,42.635-42.648,42.635h-8.215H339.514h-95.361H120.555
	h-9.351c-23.456,0-42.644-19.234-42.644-42.677l5.088-50.222l16.289-175.687l1.278-13.517c2.208-23.336,19.204-42.635,42.651-42.635
	h57.49c14.53,0,4.33-0.031,15.354,0.149c48.859,0.797,70.864,3.836,118.677,36.03l128.4,86.461
	c19.448,13.098,39.418,24.442,42.648,47.669l7.129,51.206h-7.486h-20.242c-5.511,0-9.978,4.466-9.978,9.975
	c0,5.508,4.467,9.975,9.978,9.975h20.242h10.264V305.467z"/>
<path style="fill:#677C0F;" d="M110.665,295.841c0,5.508-4.467,9.975-9.978,9.975c-0.445,0-44.709-0.004-45.389-0.023
	C24.806,304.933,0,279.417,0,248.915c0-31.378,25.533-56.903,56.918-56.903h31.204c5.511,0,9.978,4.466,9.978,9.975
	c0,5.51-4.467,9.975-9.978,9.975H56.918c-20.381,0-36.962,16.577-36.962,36.951c0,19.78,16.057,36.328,35.812,36.935
	c2.352,0.011,43.047,0.019,44.92,0.019C106.198,285.866,110.665,290.332,110.665,295.841z"/>
<path style="fill:#7E9822;" d="M506.342,305.467L512,346.105c0,23.45-19.19,42.635-42.648,42.635h-8.215H339.514h-95.361H120.556
	h-9.352c-23.456,0-42.644-19.234-42.644-42.677l5.088-50.222l16.289-175.687l1.278-13.517c2.208-23.336,19.204-42.635,42.651-42.635
	h57.49c2.141,0,3.734-0.001,4.949-0.001l20.484,140.178c3.799,25.995,24.536,47.275,46.082,47.275h235.95l4.743,34.064l0,0h-7.486
	h-20.242c-5.511,0-9.978,4.466-9.978,9.975c0,5.508,4.467,9.975,9.978,9.975h20.242h10.266V305.467z"/>
<path style="fill:#677C0F;" d="M511.8,344.664l0.2,1.441c0,23.45-19.19,42.634-42.648,42.634h-8.216H339.514h-95.361H120.556h-9.352
	c-23.456,0-42.644-19.235-42.644-42.677l0.141-1.399H511.8V344.664z"/>
<path style="fill:#234848;" d="M240.605,388.74c0,32.728-26.536,59.26-59.276,59.26s-59.281-26.532-59.281-59.26
	s26.541-59.26,59.281-59.26S240.605,356.012,240.605,388.74z M399.226,329.481c-32.74,0-59.281,26.532-59.281,59.26
	S366.487,448,399.226,448s59.276-26.532,59.276-59.26S431.967,329.481,399.226,329.481z"/>
<path style="fill:#97BAA8;" d="M191.343,388.74c0,5.51-4.467,9.975-9.978,9.975c-5.512,0-10.013-4.466-10.013-9.975
	c0-5.508,4.432-9.975,9.943-9.975h0.069C186.876,378.765,191.343,383.231,191.343,388.74z M399.262,378.765h-0.069
	c-5.511,0-9.943,4.466-9.943,9.975c0,5.51,4.502,9.975,10.013,9.975c5.511,0,9.978-4.466,9.978-9.975
	C409.24,383.231,404.774,378.765,399.262,378.765z"/>
<path style="fill:#AFAFAF;" d="M161.939,226.616c0,5.51-4.467,9.975-9.978,9.975h-34.099c-5.511,0-9.978-4.466-9.978-9.975
	s4.467-9.975,9.978-9.975h34.099C157.471,216.642,161.939,221.107,161.939,226.616z M117.861,187.33h34.099
	c5.511,0,9.978-4.466,9.978-9.975s-4.467-9.975-9.978-9.975h-34.099c-5.511,0-9.978,4.466-9.978,9.975
	S112.351,187.33,117.861,187.33z"/>
<path style="fill:#CDE044;" d="M117.861,240.775h-30.89c-16.989,0-30.89-13.895-30.89-30.878v-15.821
	c0-16.983,13.9-30.88,30.89-30.88h30.89V240.775L117.861,240.775z"/>
<g>
</g>
<g>
</g>
<g>
</g>
<g>
</g>
<g>
</g>
<g>
</g>
<g>
</g>
<g>
</g>
<g>
</g>
<g>
</g>
<g>
</g>
<g>
</g>
<g>
</g>
<g>
</g>
<g>
</g>
</svg>
