<?xml version="1.0" encoding="iso-8859-1"?>
<!-- Generator: Adobe Illustrator 19.0.0, SVG Export Plug-In . SVG Version: 6.00 Build 0)  -->
<svg version="1.1" id="Layer_1" xmlns="http://www.w3.org/2000/svg" xmlns:xlink="http://www.w3.org/1999/xlink" x="0px" y="0px"
	 viewBox="0 0 511.999 511.999" style="enable-background:new 0 0 511.999 511.999;" xml:space="preserve">
<path style="fill:#CAEEC5;" d="M392.87,446.628c-47.257,0.262-94.513,0.099-141.768,0.028l-33.203-0.461l-33.203,0.461
	c-47.256,0.07-94.513,0.234-141.768-0.028c-49.863-0.275-51.862-4.184-28.499-44.955l88.645-151.497
	c14.12-24.129,28.173-48.297,42.256-72.448V15.601H217.9h72.572v162.128c14.082,24.151,28.136,48.319,42.256,72.448l88.645,151.497
	C444.732,442.444,442.734,446.353,392.87,446.628z"/>
<path style="fill:#5B7F81;" d="M290.469,177.728c14.082,24.151,28.136,48.319,42.256,72.448l88.645,151.497
	c23.363,40.77,21.365,44.68-28.5,44.955c-47.256,0.262-94.513,0.099-141.768,0.028l-33.203-0.461l-33.203,0.461
	c-47.256,0.07-94.513,0.234-141.768-0.028c-49.863-0.275-51.862-4.184-28.499-44.955l88.645-151.497
	c14.12-24.129,28.173-48.297,42.256-72.448l-0.095-0.831c55.373-48.538,89.956,37.466,145.332-11.071L290.469,177.728z"/>
<path style="fill:#CDE044;" d="M242.135,500.57c-1.57-15.994-1.424-32.408,0.636-49.026c14.989-120.74,124.69-206.431,245.037-191.4
	c7.866,0.984,15.58,2.383,23.135,4.154c1.57,15.994,1.42,32.407-0.641,49.025c-14.983,120.74-124.683,206.432-245.03,191.4
	C257.402,503.74,249.684,502.341,242.135,500.57L242.135,500.57z"/>
<path style="fill:#B1CD3E;" d="M242.042,499.453l268.9-235.155c1.571,15.994,1.42,32.407-0.641,49.025
	c-14.983,120.74-124.683,206.432-245.03,191.4c-7.868-0.984-15.587-2.383-23.135-4.154
	C242.1,500.199,242.076,499.824,242.042,499.453z"/>
<path style="fill:#97BAA8;" d="M327.125,15.605c0,5.545-4.486,10.04-10.02,10.04H118.688c-5.533,0-10.02-4.494-10.02-10.04
	s4.486-10.04,10.02-10.04h198.418C322.639,5.565,327.125,10.059,327.125,15.605z"/>
<path style="fill:#677C0F;" d="M388.342,385.409L255.05,503.185c-4.354-0.754-8.664-1.618-12.915-2.616
	c-0.391-3.974-0.673-7.973-0.848-11.995l133.802-118.226c4.151-3.666,10.483-3.268,14.142,0.89
	C392.89,375.398,392.493,381.741,388.342,385.409z"/>
<path style="fill:#234848;" d="M199.696,220.4c0,5.545-4.486,10.04-10.019,10.04c-5.533,0-10.063-4.494-10.063-10.04
	c0-5.545,4.442-10.04,9.976-10.04h0.087C195.21,210.36,199.696,214.855,199.696,220.4z M189.676,317.986h-0.087
	c-5.534,0-9.976,4.494-9.976,10.04c0,5.545,4.529,10.04,10.063,10.04c5.534,0,10.019-4.494,10.019-10.04
	C199.695,322.481,195.21,317.986,189.676,317.986z M232.965,255.418h-0.083c-5.533,0-9.977,4.494-9.977,10.04
	c0,5.545,4.528,10.04,10.061,10.04c5.534,0,10.02-4.494,10.02-10.04C242.984,259.912,238.499,255.418,232.965,255.418z"/>
<g>
</g>
<g>
</g>
<g>
</g>
<g>
</g>
<g>
</g>
<g>
</g>
<g>
</g>
<g>
</g>
<g>
</g>
<g>
</g>
<g>
</g>
<g>
</g>
<g>
</g>
<g>
</g>
<g>
</g>
</svg>
