<?xml version="1.0" encoding="iso-8859-1"?>
<!-- Generator: Adobe Illustrator 19.0.0, SVG Export Plug-In . SVG Version: 6.00 Build 0)  -->
<svg version="1.1" id="Layer_1" xmlns="http://www.w3.org/2000/svg" xmlns:xlink="http://www.w3.org/1999/xlink" x="0px" y="0px"
	 viewBox="0 0 512.001 512.001" style="enable-background:new 0 0 512.001 512.001;" xml:space="preserve">
<path style="fill:#391B10;" d="M479.408,382.506l-172.42,0.004l-217.344-0.006l76.639-120.343
	c36.141-56.747,71.93-113.687,108.423-170.25c14.741-22.847,23.738-34.824,32.283-36.259c8.545,1.435,17.542,13.411,32.282,36.259
	c36.492,56.563,72.282,113.503,108.423,170.25l31.716,49.802V382.506z"/>
<path style="fill:#874D20;" d="M461.027,382.505l-217.344,0.006l-217.344-0.006l76.64-120.343
	c36.141-56.747,71.93-113.687,108.423-170.25c14.74-22.847,23.738-34.824,32.283-36.259c8.545,1.435,17.542,13.411,32.282,36.259
	c36.492,56.563,72.282,113.503,108.423,170.25L461.027,382.505z"/>
<path style="fill:#A57541;" d="M307.562,141.208c-22.007,5.277-45.195,8.109-69.151,8.109c-20.629,0-40.686-2.105-59.913-6.055
	c10.925-17.141,21.88-34.264,32.905-51.351c14.739-22.846,23.737-34.823,32.282-36.257c8.545,1.435,17.542,13.411,32.282,36.259
	C286.55,108.315,297.07,124.754,307.562,141.208z"/>
<path style="fill:#FFCE76;" d="M492.852,371.858c-4.414,13.237-8.789,26.184-13.006,38.394
	c-4.127,11.947-8.487,24.283-13.106,36.989c-2.037,5.628-6.864,9.038-11.957,9.041v0.066h-33.218h-31.106H346.13
	c-7.164,0-12.971-6.524-12.971-14.57c0-0.208,0.004-0.42,0.012-0.624c-0.934-23.059-10.184-33.41-16.844-40.862
	c-2.527-2.832-4.796-5.372-6.76-8.26c-14-20.609-20.472-38.164-28.124-58.936c-3.281-8.9-6.798-18.451-11.78-30.177
	c-2.275-5.359-5.593-17.437-5.832-22.541c-0.607-12.678,4.125-28.295,17.47-28.764c5.78-0.2,12.134,1.47,16.137,4.234
	c7.785,5.376,13.813,14.334,18.661,23.719c3.816,7.392,5.471,16.626,8.115,23.023c1.002,2.43,1.985,4.503,2.938,6.245
	c8.629,15.75,26.287,7.184,31.915-10.768c6.774-21.609,14.5-51.818,15.279-71.917c0.836-21.407,1.645-42.074,11.708-52.732
	c11.011-11.671,22.933-13.604,36.25-8.358l3.568,22.925c19.236-10.69,31.193,2.834,38.344,19.365
	c7.146,16.508,9.45,23.117,9.642,29.615h14.947c2.497,0.276,8.29,3.58,8.957,4.814c6.347,11.684,11.293,23.277,13.191,35.164
	C515.062,303.982,506.684,330.356,492.852,371.858z"/>
<path style="fill:#FFA754;" d="M440.393,245.372c-6.023,27.235-11.383,51.021-15.988,66.29c-1.189,3.941-4.798,6.482-8.703,6.482
	c-0.918,0-1.851-0.14-2.774-0.436c-4.771-1.528-7.296-6.79-5.853-11.598c4.404-14.677,9.653-37.986,15.558-64.686
	c2.738-12.386,2.046-27.017,0.481-43.474c-0.337-3.548,0.638-7.101,2.756-9.965c5.505-3.06,10.407-4.116,14.778-3.705v0.555
	C440.469,184.896,444.104,228.587,440.393,245.372z M488.804,236.964h-14.947c-0.004-0.164-0.012-0.327-0.02-0.491
	c-0.176,1.665-0.432,3.498-0.735,5.651c-0.295,2.113-0.711,4.536-1.269,7.387c-1.504,7.607-2.849,15.004-4.151,22.157
	c-3.019,16.595-5.869,32.269-9.886,45.723c-1.44,4.825,1.293,9.907,6.106,11.351c0.869,0.262,1.747,0.385,2.611,0.385
	c3.915,0,7.53-2.553,8.71-6.507c4.305-14.418,7.243-30.575,10.354-47.681c1.289-7.086,2.621-14.414,4.103-21.904
	c0.626-3.2,1.095-5.943,1.436-8.38c0.344-2.45,0.627-4.63,0.829-6.658C490.746,237.454,489.606,237.052,488.804,236.964z"/>
<path style="fill:#BCA475;" d="M0,382.51c0-5.535,4.474-10.021,9.995-10.021h243.494c5.521,0,9.995,4.487,9.995,10.021
	c0,5.535-4.476,10.021-9.995,10.021H9.995C4.474,392.531,0,388.045,0,382.51z M291.719,414.551H9.995
	c-5.521,0-9.995,4.487-9.995,10.021c0,5.535,4.474,10.021,9.995,10.021h281.722c5.521,0,9.995-4.487,9.995-10.021
	C301.714,419.038,297.238,414.551,291.719,414.551z"/>
<g>
</g>
<g>
</g>
<g>
</g>
<g>
</g>
<g>
</g>
<g>
</g>
<g>
</g>
<g>
</g>
<g>
</g>
<g>
</g>
<g>
</g>
<g>
</g>
<g>
</g>
<g>
</g>
<g>
</g>
</svg>
