<?xml version="1.0" encoding="iso-8859-1"?>
<!-- Generator: Adobe Illustrator 19.0.0, SVG Export Plug-In . SVG Version: 6.00 Build 0)  -->
<svg version="1.1" id="Layer_1" xmlns="http://www.w3.org/2000/svg" xmlns:xlink="http://www.w3.org/1999/xlink" x="0px" y="0px"
	 viewBox="0 0 512 512" style="enable-background:new 0 0 512 512;" xml:space="preserve">
<path style="fill:#7E9822;" d="M477.717,488.936c0,5.533-4.484,10.017-10.017,10.017H166.942c-0.087,0.002-0.174,0.003-0.26,0.003
	c-5.5,0-9.965-4.432-10.017-9.921c0-0.032,0-0.065,0-0.097v-89.913c0-5.533,4.484-10.017,10.017-10.017
	c5.533,0,10.017,4.484,10.017,10.017v79.892H467.7C473.232,478.918,477.717,483.403,477.717,488.936z"/>
<path style="fill:#484F00;" d="M477.731,475.888v26.094c0,5.533-4.484,10.017-10.017,10.017c-5.533,0-10.017-4.484-10.017-10.017
	v-26.094c0-5.533,4.484-10.017,10.017-10.017C473.246,465.871,477.731,470.355,477.731,475.888z"/>
<path style="fill:#A57541;" d="M166.682,429.362c-29.343-0.002-76.565-0.037-96.157-0.122c-52.827-0.233-54.949-3.626-30.198-38.929
	l93.92-131.189c25.533-35.661,50.857-71.425,76.488-107.04c14.633,1.402,29.772,2.145,45.267,2.145
	c15.461,0,30.573-0.738,45.194-2.139l76.621,107.036c30.917,43.185,62.141,86.236,92.757,129.563
	c26.158,37.019,23.582,40.189-26.707,40.555H217.241L166.682,429.362z"/>
<path style="fill:#FFBB5E;" d="M336.441,10.017c0,35.853-22.618,47.028-40.792,56.007c-17.202,8.499-29.631,14.64-29.631,38.046
	c0,5.533-4.484,10.017-10.017,10.017s-10.017-4.484-10.017-10.017c0-35.853,22.618-47.028,40.792-56.008
	c17.202-8.499,29.631-14.64,29.631-38.045C316.406,4.484,320.891,0,326.423,0S336.441,4.484,336.441,10.017z"/>
<path style="fill:#663310;" d="M443.866,429.241H217.241l-50.559,0.122c-29.343-0.002-76.565-0.037-96.157-0.122
	c-52.827-0.233-54.949-3.626-30.198-38.929l93.92-131.189c7.968-11.128,15.914-22.268,23.858-33.408
	c31.113,3.534,69.188,5.461,103.428,5.461c32.426,0,63.605-1.74,92.753-4.925l23.531,32.872
	c30.917,43.186,62.141,86.236,92.757,129.564C496.731,425.705,494.156,428.875,443.866,429.241z"/>
<g>
</g>
<g>
</g>
<g>
</g>
<g>
</g>
<g>
</g>
<g>
</g>
<g>
</g>
<g>
</g>
<g>
</g>
<g>
</g>
<g>
</g>
<g>
</g>
<g>
</g>
<g>
</g>
<g>
</g>
</svg>
