<?xml version="1.0" encoding="iso-8859-1"?>
<!-- Generator: Adobe Illustrator 19.0.0, SVG Export Plug-In . SVG Version: 6.00 Build 0)  -->
<svg version="1.1" id="Layer_1" xmlns="http://www.w3.org/2000/svg" xmlns:xlink="http://www.w3.org/1999/xlink" x="0px" y="0px"
	 viewBox="0 0 512 512" style="enable-background:new 0 0 512 512;" xml:space="preserve">
<path style="fill:#CAEFDF;" d="M302.748,462.664H75.89c-17.252,0-31.369-14.142-31.369-31.427V81.453
	c0-17.286,14.116-31.428,31.369-31.428h228.705c17.254,0,31.371,14.143,31.371,31.43V244.68l0.2,184.468
	C336.188,447.653,321.219,462.664,302.748,462.664z"/>
<path style="fill:#B6DDCD;" d="M336.168,429.147c0.02,18.505-14.948,33.517-33.418,33.517H195.526V50.025h109.07
	c17.254,0,31.371,14.143,31.371,31.43V244.68L336.168,429.147z"/>
<path style="fill:#5B7F81;" d="M276.555,225.387v34.285v27.629H103.933v-61.914H276.555z M103.933,407.919h172.622V380.29v-34.285
	H103.933V407.919z"/>
<path style="fill:#234848;" d="M219.075,346.005h57.48v34.285v27.629h-93.463C192.585,385.635,204.727,364.886,219.075,346.005z"/>
<path style="fill:#97BAA8;" d="M261.181,10.044c0,5.547-4.489,10.044-10.025,10.044H129.334c-5.537,0-10.025-4.497-10.025-10.044
	S123.797,0,129.334,0h121.821C256.692,0,261.181,4.497,261.181,10.044z"/>
<path style="fill:#CDE044;" d="M212.547,506.468c-1.484-15.087-1.342-30.572,0.605-46.248
	c14.151-113.899,117.787-194.735,231.472-180.555c7.431,0.928,14.724,2.248,21.855,3.919c1.484,15.087,1.342,30.572-0.605,46.248
	c-14.152,113.898-117.788,194.734-231.47,180.553C226.971,509.458,219.682,508.138,212.547,506.468L212.547,506.468z"/>
<path style="fill:#B1CD3E;" d="M234.404,510.386c-7.433-0.928-14.721-2.248-21.857-3.918l253.932-222.884
	c1.484,15.087,1.342,30.572-0.605,46.248C451.721,443.73,348.086,524.566,234.404,510.386z"/>
<path style="fill:#677C0F;" d="M351.012,398.286L224.833,508.949c-4.142-0.715-8.242-1.535-12.287-2.481
	c-0.414-4.204-0.687-8.441-0.844-12.702l126.102-110.595c4.166-3.653,10.498-3.233,14.147,0.942
	C355.599,388.286,355.178,394.632,351.012,398.286z"/>
<g>
</g>
<g>
</g>
<g>
</g>
<g>
</g>
<g>
</g>
<g>
</g>
<g>
</g>
<g>
</g>
<g>
</g>
<g>
</g>
<g>
</g>
<g>
</g>
<g>
</g>
<g>
</g>
<g>
</g>
</svg>
