<?xml version="1.0" encoding="iso-8859-1"?>
<!-- Generator: Adobe Illustrator 19.0.0, SVG Export Plug-In . SVG Version: 6.00 Build 0)  -->
<svg version="1.1" id="Layer_1" xmlns="http://www.w3.org/2000/svg" xmlns:xlink="http://www.w3.org/1999/xlink" x="0px" y="0px"
	 viewBox="0 0 512 512" style="enable-background:new 0 0 512 512;" xml:space="preserve">
<path style="fill:#415E5C;" d="M344.732,210.987V361.25v28.114H167.464V255.581L344.732,210.987z"/>
<path style="fill:#234848;" d="M285.641,262.344v101.124v25.896h-59.09V277.879L285.641,262.344z"/>
<path style="fill:#B1D7C5;" d="M386.674,252.139l-237.765,63.484c-24.007,6.41-48.918-7.92-55.355-31.846
	c-6.431-23.929,7.95-48.748,31.961-55.159l21.478-5.734c-23.407,5.175-47.172-9.016-53.437-32.306l-0.21-0.876
	c-6.431-23.929,8.161-47.872,32.171-54.283l41.005-10.949c-21.09,1.422-41.085-12.197-46.748-33.268
	c-6.433-23.927,7.942-48.746,31.958-55.157L280.983,1.53c24.014-6.411,48.918,7.918,55.355,31.848
	c5.59,20.798-4.487,42.404-22.994,51.888l49.938-13.333c24.014-6.411,48.918,7.918,55.355,31.845
	c6.431,23.929-7.947,48.748-31.961,55.159l-21.574,5.76c23.436-5.238,47.259,8.957,53.536,32.283
	C425.072,220.907,410.688,245.726,386.674,252.139z"/>
<path style="fill:#78A097;" d="M419.242,199.552l-324.92,86.754c-0.277-0.831-0.538-1.673-0.768-2.53
	c-6.431-23.929,7.95-48.748,31.961-55.159l110.437-29.486l127.33-33.997c24.011-6.413,48.916,7.916,55.355,31.845
	C418.869,197.835,419.065,198.694,419.242,199.552z M93.557,190.575c0.055,0.203,0.121,0.4,0.178,0.601l325.05-86.791
	c-0.051-0.203-0.092-0.405-0.147-0.609c-6.437-23.927-31.342-38.258-55.355-31.845l-237.765,63.485
	c-24.011,6.411-38.603,30.354-32.171,54.283L93.557,190.575z M120.34,93.108l216.359-58.251c-0.115-0.493-0.228-0.986-0.361-1.479
	C329.901,9.448,304.996-4.881,280.983,1.53l-129.25,34.513c-24.016,6.412-38.392,31.23-31.958,55.157
	C119.948,91.845,120.141,92.478,120.34,93.108z"/>
<path style="fill:#4C4C4C;" d="M309.626,458.662c0,29.338-24.09,53.338-53.528,53.338l0,0c-29.441,0-53.532-24.002-53.532-53.338
	v-35.85h107.06V458.662z"/>
<path style="fill:#7C7C7C;" d="M155.826,375.239h200.348v35.39c0,19.466-15.915,35.391-35.373,35.391H191.198
	c-19.454,0-35.373-15.925-35.373-35.391V375.239L155.826,375.239z"/>
<path style="fill:#B2B2B2;" d="M356.174,400.514H155.826v-25.275h200.348V400.514z"/>
<g>
</g>
<g>
</g>
<g>
</g>
<g>
</g>
<g>
</g>
<g>
</g>
<g>
</g>
<g>
</g>
<g>
</g>
<g>
</g>
<g>
</g>
<g>
</g>
<g>
</g>
<g>
</g>
<g>
</g>
</svg>
