<?xml version="1.0" encoding="iso-8859-1"?>
<!-- Generator: Adobe Illustrator 19.0.0, SVG Export Plug-In . SVG Version: 6.00 Build 0)  -->
<svg version="1.1" id="Layer_1" xmlns="http://www.w3.org/2000/svg" xmlns:xlink="http://www.w3.org/1999/xlink" x="0px" y="0px"
	 viewBox="0 0 512 512" style="enable-background:new 0 0 512 512;" xml:space="preserve">
<path style="fill:#234848;" d="M178.087,345.043c6.905-10.405,98.239-132.595,104.892-141.098
	c12.174-15.561,24.199-18.283,43.57-18.137c19.378-0.147,31.402,2.573,43.579,18.137c7.384,9.438,15.767,20.49,23.266,32.173
	l62.954,97.795l-11.13,22.261L178.087,345.043z"/>
<path style="fill:#415E5C;" d="M345.043,367.304l-50.975,22.261H120.563c-39.333,0-71.218-61.23-71.218-100.562v-5.94V281.6
	c5.984-8.675,73.263-103.866,78.919-111.091c12.174-15.563,24.199-18.282,43.57-18.137c19.378-0.145,31.402,2.573,43.579,18.137
	c7.384,9.439,15.767,20.489,23.269,32.171L345.043,367.304z"/>
<path style="fill:#FFCE76;" d="M222.917,50.966c0,28.148-22.867,50.965-51.083,50.965c-28.209,0-51.08-22.818-51.08-50.965
	C120.754,22.819,143.625,0,171.834,0C200.05,0,222.917,22.819,222.917,50.966z M326.551,33.437c-28.209,0-51.08,22.819-51.08,50.967
	c0,28.148,22.871,50.965,51.08,50.965c28.215,0,51.083-22.819,51.083-50.965C377.633,56.255,354.766,33.437,326.551,33.437z"/>
<path style="fill:#FFBB5E;" d="M222.917,50.966c0,28.148-22.867,50.965-51.083,50.965c-19.18,0-35.883-10.555-44.616-26.155
	c6.037,2.505,12.655,3.895,19.601,3.895c28.215,0,51.083-22.819,51.083-50.965c0-9.009-2.352-17.467-6.463-24.811
	C209.921,11.566,222.917,29.749,222.917,50.966z M346.155,37.331c4.112,7.344,6.463,15.802,6.463,24.811
	c0,28.148-22.867,50.965-51.083,50.965c-6.945,0-13.565-1.389-19.601-3.895c8.733,15.6,25.436,26.155,44.616,26.155
	c28.215,0,51.083-22.819,51.083-50.965C377.633,63.185,364.637,45.003,346.155,37.331z"/>
<path style="fill:#7E9822;" d="M293.819,347.996c32.515-18.981,69.268-29.852,106.91-30.571c1.437-0.028,2.878-0.041,4.322-0.041
	c24.75,0,48.553,4.051,70.775,11.528c-16.683,96.382-95.944,171.376-194.531,181.831l-58.686-121.178L293.819,347.996z"/>
<path style="fill:#677C0F;" d="M372.566,399.301l-118.377,65.803c-1.542,0.857-3.211,1.263-4.857,1.263
	c-3.519,0-6.933-1.858-8.765-5.152c-2.688-4.835-0.947-10.935,3.889-13.623l118.377-65.803c4.837-2.69,10.935-0.947,13.623,3.889
	C379.142,390.513,377.401,396.613,372.566,399.301z"/>
<path style="fill:#B1CD3E;" d="M281.295,510.744c-7.777,0.824-15.673,1.255-23.67,1.255C135.319,512,36.174,413.08,36.174,291.052
	c0-16.796,1.887-33.152,5.447-48.873c7.773-0.824,15.673-1.258,23.667-1.258c122.306,0,221.454,98.922,221.454,220.949
	C286.742,478.668,284.855,495.022,281.295,510.744L281.295,510.744z"/>
<path style="fill:#677C0F;" d="M268.737,511.714l-119.373-133.76c-3.684-4.127-3.324-10.46,0.804-14.145
	c4.127-3.684,10.46-3.324,14.145,0.804l119.403,133.795c-0.693,4.152-1.498,8.267-2.42,12.337
	C277.142,511.184,272.954,511.504,268.737,511.714z"/>
<g>
</g>
<g>
</g>
<g>
</g>
<g>
</g>
<g>
</g>
<g>
</g>
<g>
</g>
<g>
</g>
<g>
</g>
<g>
</g>
<g>
</g>
<g>
</g>
<g>
</g>
<g>
</g>
<g>
</g>
</svg>
