<?xml version="1.0" encoding="iso-8859-1"?>
<!-- Generator: Adobe Illustrator 19.0.0, SVG Export Plug-In . SVG Version: 6.00 Build 0)  -->
<svg version="1.1" id="Layer_1" xmlns="http://www.w3.org/2000/svg" xmlns:xlink="http://www.w3.org/1999/xlink" x="0px" y="0px"
	 viewBox="0 0 512 512" style="enable-background:new 0 0 512 512;" xml:space="preserve">
<path style="fill:#CAEFDF;" d="M255.791,21.042c95.776,0,173.426,76.773,173.426,171.474s-77.649,171.469-173.426,171.469
	S82.364,287.216,82.364,192.516S160.013,21.042,255.791,21.042L255.791,21.042z"/>
<path style="fill:#B6DDCD;" d="M255.791,76.356c64.882,0,117.482,52.008,117.482,116.159s-52.601,116.156-117.482,116.156
	s-117.482-52.005-117.482-116.156S190.909,76.356,255.791,76.356L255.791,76.356z"/>
<path style="fill:#757575;" d="M265.86,204.429v291.572c0,5.533-4.508,10.017-10.07,10.017c-5.562,0-10.07-4.484-10.07-10.017
	V204.429c0-5.533,4.508-10.017,10.07-10.017C261.352,194.412,265.86,198.896,265.86,204.429z"/>
<path style="fill:#494949;" d="M367.599,501.983c0,5.533-4.508,10.017-10.07,10.017H154.051c-5.562,0-10.07-4.484-10.07-10.017
	c0-5.533,4.508-10.017,10.07-10.017H357.53C363.091,491.965,367.599,496.45,367.599,501.983z"/>
<path style="fill:#5B7F81;" d="M431.304,292.492l-5.759,9.922L322.78,263.851L256,225.497l-66.781,38.354L86.455,302.414
	l-5.759-9.922l84.954-69.251l66.991-38.476L256,225.015l23.361-40.25l66.991,38.476L431.304,292.492z M279.361,107.814L261.549,0
	h-11.517l-17.811,107.814v76.951h0.42h46.72V107.814z"/>
<path style="fill:#102B2A;" d="M255.791,153.744c21.655,0,39.213,17.359,39.213,38.772s-17.557,38.771-39.213,38.771
	s-39.213-17.358-39.213-38.771S234.134,153.744,255.791,153.744L255.791,153.744z"/>
<path style="fill:#234848;" d="M255.791,170.405c12.349,0,22.361,9.899,22.361,22.109s-10.012,22.108-22.361,22.108
	c-12.349,0-22.361-9.898-22.361-22.108S243.442,170.405,255.791,170.405L255.791,170.405z"/>
<g>
</g>
<g>
</g>
<g>
</g>
<g>
</g>
<g>
</g>
<g>
</g>
<g>
</g>
<g>
</g>
<g>
</g>
<g>
</g>
<g>
</g>
<g>
</g>
<g>
</g>
<g>
</g>
<g>
</g>
</svg>
