<?xml version="1.0" encoding="iso-8859-1"?>
<!-- Generator: Adobe Illustrator 19.0.0, SVG Export Plug-In . SVG Version: 6.00 Build 0)  -->
<svg version="1.1" id="Layer_1" xmlns="http://www.w3.org/2000/svg" xmlns:xlink="http://www.w3.org/1999/xlink" x="0px" y="0px"
	 viewBox="0 0 512 512" style="enable-background:new 0 0 512 512;" xml:space="preserve">
<path style="fill:#78A097;" d="M389.912,407.148v0.089h-23.721v-0.045c-82.125,0.111-248.054,0.012-252.143-0.29
	C55.822,402.605,7.165,357.398,0.714,297.503c-6.081-56.445,27.243-108.06,77.962-127.642c-4.818-48.447,30.478-91.793,79.167-97
	c47.319-5.06,89.952,27.758,97.468,74.006c13.844-9.552,30.619-15.159,48.711-15.159c47.436,0,85.89,38.455,85.89,85.89v132.591
	l14.875,56.901C401.159,407.114,396.111,407.131,389.912,407.148z"/>
<path style="fill:#5B7F81;" d="M389.912,407.205c-53.599-0.048-97.677-0.149-99.761-0.303
	c-58.226-4.297-106.882-49.504-113.333-109.399c-6.081-56.445,27.243-108.06,77.962-127.642c-0.785-7.896-0.488-15.651,0.742-23.132
	c13.804-9.465,30.5-15.019,48.501-15.019c47.436,0,85.89,38.455,85.89,85.89v132.591l14.875,56.901
	c-3.629,0.02-8.677,0.039-14.875,0.055v0.058H389.912z"/>
<path style="fill:#FFCE76;" d="M492.509,353.873c-4.493,13.439-8.947,26.583-13.239,38.98c-4.201,12.13-8.638,24.654-13.341,37.553
	c-2.074,5.713-6.987,9.176-12.171,9.179v0.067h-33.812h-31.663h-45.122c-7.292,0-13.203-6.623-13.203-14.792
	c0-0.211,0.006-0.425,0.012-0.634c-0.951-23.411-10.367-33.92-17.145-41.485c-2.572-2.874-4.882-5.453-6.88-8.387
	c-14.25-20.923-20.838-38.746-28.627-59.835c-3.339-9.036-6.921-18.733-11.991-30.638c-2.315-5.441-5.693-17.703-5.937-22.885
	c-0.618-12.871,4.198-28.727,17.783-29.203c5.884-0.204,12.351,1.494,16.426,4.299c7.925,5.458,14.06,14.553,18.995,24.081
	c3.883,7.504,5.569,16.879,8.26,23.375c1.02,2.467,2.02,4.571,2.992,6.34c8.783,15.99,26.758,7.293,32.485-10.932
	c6.895-21.938,14.759-52.608,15.551-73.015c0.852-21.733,1.675-42.716,11.917-53.535c11.208-11.849,23.344-13.812,36.897-8.486
	l3.632,23.276c19.58-10.853,31.752,2.877,39.03,19.66c7.274,16.759,9.619,23.47,9.815,30.067h15.214
	c2.541,0.28,8.438,3.634,9.117,4.887c6.46,11.862,11.496,23.632,13.427,35.701C515.116,284.963,506.589,311.739,492.509,353.873z"/>
<path style="fill:#FFA754;" d="M491.589,217.972c-0.206,2.059-0.494,4.273-0.844,6.761c-0.346,2.474-0.825,5.259-1.461,8.508
	c-1.507,7.603-2.864,15.043-4.175,22.238c-3.167,17.366-6.157,33.769-10.539,48.407c-1.201,4.014-4.881,6.606-8.865,6.606
	c-0.879,0-1.773-0.126-2.658-0.392c-4.898-1.466-7.681-6.626-6.215-11.524c4.088-13.658,6.99-29.572,10.062-46.421
	c1.325-7.263,2.694-14.773,4.225-22.496c0.567-2.896,0.991-5.356,1.291-7.5c0.307-2.185,0.569-4.046,0.747-5.737
	c0.008,0.166,0.016,0.333,0.02,0.499h15.214C489.204,217.011,490.365,217.42,491.589,217.972z M439.372,163.998v-0.564
	c-4.449-0.416-9.439,0.656-15.042,3.762c-2.155,2.907-3.149,6.515-2.805,10.118c1.593,16.709,2.297,31.563-0.49,44.138
	c-6.01,27.108-11.354,50.771-15.836,65.673c-1.468,4.882,1.102,10.223,5.958,11.775c0.939,0.301,1.889,0.443,2.824,0.443
	c3.974,0,7.649-2.58,8.859-6.581c4.687-15.501,10.143-39.65,16.274-67.3C442.89,208.418,439.189,164.061,439.372,163.998z"/>
<g>
</g>
<g>
</g>
<g>
</g>
<g>
</g>
<g>
</g>
<g>
</g>
<g>
</g>
<g>
</g>
<g>
</g>
<g>
</g>
<g>
</g>
<g>
</g>
<g>
</g>
<g>
</g>
<g>
</g>
</svg>
