<?xml version="1.0" encoding="iso-8859-1"?>
<!-- Generator: Adobe Illustrator 19.0.0, SVG Export Plug-In . SVG Version: 6.00 Build 0)  -->
<svg version="1.1" id="Layer_1" xmlns="http://www.w3.org/2000/svg" xmlns:xlink="http://www.w3.org/1999/xlink" x="0px" y="0px"
	 viewBox="0 0 512 512" style="enable-background:new 0 0 512 512;" xml:space="preserve">
<path style="fill:#9EC6B6;" d="M489.326,237.529c0,131.183-105.803,237.529-236.316,237.529S16.696,368.712,16.696,237.529
	S122.498,0,253.011,0S489.326,106.345,489.326,237.529z"/>
<path style="fill:#97BAA8;" d="M434.115,84.953c34.453,41.273,55.213,94.483,55.213,152.575
	c0,131.183-105.801,237.529-236.316,237.529S16.696,368.712,16.696,237.529c0-58.092,20.759-111.302,55.213-152.575
	c51.813,25.225,114.095,39.943,181.103,39.943S382.301,110.178,434.115,84.953z"/>
<path style="fill:#78A097;" d="M488.673,219.896c0.425,5.822,0.653,11.7,0.653,17.632c0,131.183-105.801,237.529-236.316,237.529
	S16.696,368.712,16.696,237.529c0-5.931,0.228-11.809,0.653-17.632c69.713,19.186,150.089,30.123,235.662,30.123
	S418.961,239.082,488.673,219.896z"/>
<path style="fill:#5B7F81;" d="M433.666,390.637c-43.349,51.622-108.187,84.421-180.655,84.421s-137.306-32.799-180.655-84.421
	c51.959-24.294,114.001-38.426,180.655-38.426S381.707,366.342,433.666,390.637z"/>
<path style="fill:#B1D7C5;" d="M340.894,237.529c0,131.183-39.346,237.529-87.884,237.529s-87.884-106.345-87.884-237.529
	S204.475,0,253.011,0S340.894,106.345,340.894,237.529z"/>
<path style="fill:#97BAA8;" d="M340.857,230.829c0.023,2.226,0.037,4.459,0.037,6.699c0,131.183-39.346,237.529-87.884,237.529
	c-48.536,0-87.884-106.345-87.884-237.529c0-2.242,0.013-4.473,0.037-6.699H340.857z"/>
<path style="fill:#B1D7C5;" d="M177.352,358.4c-7.761-35.413-12.225-76.729-12.225-120.871c0-2.242,0.013-4.473,0.037-6.699h175.693
	c0.023,2.226,0.037,4.459,0.037,6.699c0,44.143-4.463,85.459-12.225,120.871H177.352z"/>
<path style="fill:#CAEEC5;" d="M165.179,246.105c-0.033-2.682-0.051-5.872-0.051-8.576c0-43.67,4.232-83.965,11.841-119.122
	c25.441,4.639,52.197,6.49,79.614,6.49c24.956,0,49.124-2.626,72.471-6.49c7.448,34.887,11.841,75.95,11.841,119.122
	c0,2.704-0.018,5.889-0.051,8.57L165.179,246.105z"/>
<path style="fill:#FF431C;" d="M279.571,410.288c-46.877-67.649,52.243-140.81,101.732-75.06
	c49.493-65.75,148.612,7.412,101.732,75.06C389.077,545.904,373.532,545.903,279.571,410.288L279.571,410.288z"/>
<path style="fill:#A7141C;" d="M483.036,410.288C436.057,478.096,408.681,512,381.304,512V335.228
	C430.798,269.479,529.917,342.64,483.036,410.288z"/>
<g>
</g>
<g>
</g>
<g>
</g>
<g>
</g>
<g>
</g>
<g>
</g>
<g>
</g>
<g>
</g>
<g>
</g>
<g>
</g>
<g>
</g>
<g>
</g>
<g>
</g>
<g>
</g>
<g>
</g>
</svg>
