<?xml version="1.0" encoding="iso-8859-1"?>
<!-- Generator: Adobe Illustrator 19.0.0, SVG Export Plug-In . SVG Version: 6.00 Build 0)  -->
<svg version="1.1" id="Layer_1" xmlns="http://www.w3.org/2000/svg" xmlns:xlink="http://www.w3.org/1999/xlink" x="0px" y="0px"
	 viewBox="0 0 512 512" style="enable-background:new 0 0 512 512;" xml:space="preserve">
<path style="fill:#7E9822;" d="M467.683,438.011c0,5.517-4.484,9.99-10.017,9.99H75.243c-5.533,0-10.017-4.472-10.017-9.99
	c0-5.517,4.484-9.99,10.017-9.99h382.423C463.197,428.021,467.683,432.493,467.683,438.011z"/>
<path style="fill:#CAEEC5;" d="M501.983,264.743c0,50.494-41.045,91.424-91.679,91.424c-50.633,0-91.681-40.931-91.681-91.424
	s41.048-91.423,91.681-91.423C460.938,173.319,501.983,214.25,501.983,264.743z M101.699,173.319
	c-50.639,0-91.681,40.931-91.681,91.424c0,50.494,41.042,91.424,91.681,91.424c50.633,0,91.679-40.931,91.679-91.424
	S152.332,173.319,101.699,173.319z"/>
<path style="fill:#234848;" d="M101.699,163.329C45.621,163.329,0,208.824,0,264.742c0,55.92,45.621,101.414,101.699,101.414
	c56.075,0,101.697-45.495,101.697-101.414C203.395,208.824,157.774,163.329,101.699,163.329z M101.699,346.178
	c-45.03,0-81.664-36.531-81.664-81.436c0-44.902,36.635-81.434,81.664-81.434c45.028,0,81.662,36.531,81.662,81.434
	C183.361,309.647,146.727,346.178,101.699,346.178z M410.303,163.329c-56.077,0-101.699,45.493-101.699,101.413
	c0,55.92,45.621,101.414,101.699,101.414c56.075,0,101.697-45.495,101.697-101.414C512,208.824,466.38,163.329,410.303,163.329z
	 M410.303,346.178c-45.03,0-81.664-36.531-81.664-81.436c0-44.902,36.635-81.434,81.664-81.434
	c45.028,0,81.662,36.531,81.662,81.434C491.965,309.647,455.332,346.178,410.303,346.178z"/>
<path style="fill:#5B5B5B;" d="M419.25,260.248l-61.769-122.286c-1.702-3.37-5.163-5.495-8.947-5.495h-21.918l18.428-35.95
	c2.518-4.912,0.565-10.93-4.36-13.441c-4.926-2.512-10.961-0.564-13.479,4.348l-23.088,45.043h-123.37l27.644-53.928
	c2.518-4.912,0.565-10.93-4.36-13.441c-4.925-2.511-10.961-0.564-13.479,4.348L92.774,260.195c-2.518,4.912-0.565,10.93,4.36,13.441
	c1.46,0.745,3.016,1.096,4.551,1.096c3.642,0,7.156-1.988,8.928-5.445l59.893-116.843h123.369l-55.23,107.749
	c-1.587,3.096-1.446,6.794,0.375,9.76c1.821,2.966,5.057,4.775,8.545,4.775h162.739c3.477,0,6.705-1.798,8.529-4.75
	C420.657,267.028,420.815,263.344,419.25,260.248z M263.935,254.752l52.44-102.308l25.987-0.001l51.679,102.309H263.935z"/>
<path style="fill:#234848;" d="M385.152,91.967c0,5.517-4.484,9.99-10.017,9.99h-63.292c-5.533,0-10.017-4.472-10.017-9.99
	s4.484-9.99,10.017-9.99h63.292C380.668,81.977,385.152,86.449,385.152,91.967z M240.385,64.005h-40.913
	c-5.533,0-10.017,4.472-10.017,9.99s4.484,9.99,10.017,9.99h40.913c5.533,0,10.017-4.472,10.017-9.99S245.917,64.005,240.385,64.005
	z"/>
<g>
</g>
<g>
</g>
<g>
</g>
<g>
</g>
<g>
</g>
<g>
</g>
<g>
</g>
<g>
</g>
<g>
</g>
<g>
</g>
<g>
</g>
<g>
</g>
<g>
</g>
<g>
</g>
<g>
</g>
</svg>
