<?xml version="1.0" encoding="iso-8859-1"?>
<!-- Generator: Adobe Illustrator 19.0.0, SVG Export Plug-In . SVG Version: 6.00 Build 0)  -->
<svg version="1.1" id="Layer_1" xmlns="http://www.w3.org/2000/svg" xmlns:xlink="http://www.w3.org/1999/xlink" x="0px" y="0px"
	 viewBox="0 0 512 512" style="enable-background:new 0 0 512 512;" xml:space="preserve">
<path style="fill:#234848;" d="M76.243,52.875l11.898,69.681l-0.001,0.001h-5.694c-6.461-5.466-10.64-9.001-17.101-14.467
	l-7.423-43.467c0,0-0.001,0-0.001-0.001h-47.59c-5.022,0-9.511-3.574-10.224-8.56c-0.889-6.213,3.89-11.54,9.911-11.54h56.351
	C71.249,44.522,75.419,48.05,76.243,52.875z M170.823,377.445L170.823,377.445c-13.551,0-24.638,11.123-24.638,24.717v21.663
	c0,13.595,11.087,24.717,24.637,24.717c13.552,0,24.639-11.124,24.639-24.72v-21.659
	C195.462,388.569,184.375,377.445,170.823,377.445z"/>
<path style="fill:#A57541;" d="M65.276,107.684h370.11l-34.148,220.306H102.895L65.276,107.684z"/>
<path style="fill:#874D20;" d="M238.93,327.989c40.851-68.466,107.012-118.816,183.963-139.71l-21.655,139.71H238.93z"/>
<path style="fill:#CDE044;" d="M259.508,461.991c-1.467-14.964-1.329-30.32,0.6-45.868
	c14.021-112.964,116.659-193.136,229.258-179.073c7.359,0.92,14.581,2.229,21.642,3.887c1.473,14.964,1.332,30.32-0.6,45.869
	c-14.015,112.964-116.657,193.138-229.256,179.073C273.794,464.957,266.575,463.648,259.508,461.991L259.508,461.991z"/>
<path style="fill:#B1CD3E;" d="M281.153,465.878c-7.359-0.92-14.578-2.231-21.645-3.887l251.5-221.055
	c1.473,14.964,1.332,30.32-0.6,45.869C496.393,399.768,393.751,479.941,281.153,465.878z"/>
<path style="fill:#677C0F;" d="M397.663,340.601c3.633,4.186,3.196,10.534-0.976,14.179L271.225,464.376
	c-3.948-0.691-7.857-1.481-11.717-2.386c-0.431-4.394-0.706-8.826-0.855-13.284l124.876-109.085
	C387.702,335.977,394.03,336.416,397.663,340.601z"/>
<g>
</g>
<g>
</g>
<g>
</g>
<g>
</g>
<g>
</g>
<g>
</g>
<g>
</g>
<g>
</g>
<g>
</g>
<g>
</g>
<g>
</g>
<g>
</g>
<g>
</g>
<g>
</g>
<g>
</g>
</svg>
