<?xml version="1.0" encoding="iso-8859-1"?>
<!-- Generator: Adobe Illustrator 19.0.0, SVG Export Plug-In . SVG Version: 6.00 Build 0)  -->
<svg version="1.1" id="Layer_1" xmlns="http://www.w3.org/2000/svg" xmlns:xlink="http://www.w3.org/1999/xlink" x="0px" y="0px"
	 viewBox="0 0 512 512" style="enable-background:new 0 0 512 512;" xml:space="preserve">
<path style="fill:#D1141C;" d="M450.489,308.101c-5.165,90.863-83.196,202.542-160.311,203.892
	c-12.764,0.223-21.024-5.18-34.178-8.516c-13.154,3.336-21.414,8.738-34.178,8.516c-77.116-1.35-155.146-113.028-160.311-203.892
	c-4.586-80.599,44.901-128.912,122.101-114.227L256,200.91l72.388-7.036C405.587,179.19,455.074,227.501,450.489,308.101z"/>
<path style="fill:#A7141C;" d="M450.489,308.101c-5.165,90.863-83.196,202.542-160.311,203.892
	c-12.492,0.218-20.683-4.947-33.355-8.294c21.432-44.548,35.214-92.259,37.743-136.76c4.848-85.227-29.212-147.212-89.259-170.956
	L256,200.91l72.388-7.036C405.587,179.19,455.074,227.501,450.489,308.101z"/>
<path style="fill:#CDE044;" d="M438.477,41.27c-0.378-14.025-2.315-27.639-5.625-40.687c-6.477-0.512-13.042-0.696-19.681-0.515
	c-57.326,1.559-107.808,29.286-140.409,71.469c-21.051-35.046-58.896-58.93-102.684-60.12c-4.466-0.124-8.881,0.001-13.24,0.346
	c-2.229,8.777-3.531,17.937-3.782,27.373c-1.497,55.373,33.375,103.247,82.839,120.588c0.008-0.058,0.018-0.115,0.026-0.171
	c-1.322,9.793-1.89,19.817-1.615,30.017c0.376,14.025,2.315,27.639,5.622,40.687c6.477,0.512,13.042,0.695,19.683,0.514
	C361.148,228.007,441.227,143.165,438.477,41.27z"/>
<path style="fill:#7E9822;" d="M235.895,159.724c-49.464-17.342-84.336-65.215-82.839-120.588
	c0.252-9.436,1.553-18.595,3.782-27.373c4.359-0.345,8.774-0.47,13.24-0.346c43.788,1.191,81.634,25.075,102.685,60.122
	C253.364,96.636,240.305,126.853,235.895,159.724L235.895,159.724z"/>
<path style="fill:#677C0F;" d="M347.778,117.435L222.899,266.106c-1.981,2.359-4.819,3.574-7.676,3.574
	c-2.274,0-4.56-0.769-6.438-2.346c-4.236-3.558-4.786-9.877-1.228-14.113l124.879-148.671c3.558-4.236,9.877-4.786,14.113-1.228
	S351.336,113.198,347.778,117.435z"/>
<g>
</g>
<g>
</g>
<g>
</g>
<g>
</g>
<g>
</g>
<g>
</g>
<g>
</g>
<g>
</g>
<g>
</g>
<g>
</g>
<g>
</g>
<g>
</g>
<g>
</g>
<g>
</g>
<g>
</g>
</svg>
