<?xml version="1.0" encoding="iso-8859-1"?>
<!-- Generator: Adobe Illustrator 19.0.0, SVG Export Plug-In . SVG Version: 6.00 Build 0)  -->
<svg version="1.1" id="Layer_1" xmlns="http://www.w3.org/2000/svg" xmlns:xlink="http://www.w3.org/1999/xlink" x="0px" y="0px"
	 viewBox="0 0 512 512" style="enable-background:new 0 0 512 512;" xml:space="preserve">
<path style="fill:#FF7B00;" d="M220.273,235.372v266.553c0,5.565-4.511,10.075-10.075,10.075c-5.564,0-10.075-4.511-10.075-10.075
	V235.372c0-5.565,4.511-10.075,10.075-10.075C215.762,225.297,220.273,229.807,220.273,235.372z"/>
<path style="fill:#F4BB19;" d="M348.716,337.975v163.949c0,5.565-4.511,10.075-10.075,10.075c-5.564,0-10.075-4.511-10.075-10.075
	V337.975c0-5.565,4.511-10.075,10.075-10.075C344.205,327.9,348.716,332.41,348.716,337.975z M501.925,272.311
	c-5.565,0-10.075,4.511-10.075,10.075v51.181L160.551,2.943c-1.98-1.977-4.635-2.995-7.337-2.941H10.076
	c-5.564,0-10.075,4.511-10.075,10.075c0,5.565,4.511,10.075,10.075,10.075H149.27l328.297,327.631h-51.268
	c-5.565,0-10.075,4.511-10.075,10.075c0,5.564,4.511,10.075,10.075,10.075h75.626c5.565,0,10.075-4.511,10.075-10.075v-75.473
	C512,276.822,507.489,272.311,501.925,272.311z"/>
<path style="fill:#FF431C;" d="M456.572,501.922c0,5.565-4.511,10.075-10.075,10.075H81.801c-0.014,0-0.029,0.002-0.043,0.002
	c-0.014,0-0.029-0.002-0.043-0.002H10.076c-5.565,0-10.075-4.511-10.075-10.075c0-5.565,4.511-10.075,10.075-10.075h61.607V107.116
	c0-5.565,4.511-10.075,10.075-10.075c5.565,0,10.075,4.511,10.075,10.075v384.73h354.661
	C452.061,491.846,456.572,496.357,456.572,501.922z"/>
<g>
</g>
<g>
</g>
<g>
</g>
<g>
</g>
<g>
</g>
<g>
</g>
<g>
</g>
<g>
</g>
<g>
</g>
<g>
</g>
<g>
</g>
<g>
</g>
<g>
</g>
<g>
</g>
<g>
</g>
</svg>
