<?xml version="1.0" encoding="iso-8859-1"?>
<!-- Generator: Adobe Illustrator 19.0.0, SVG Export Plug-In . SVG Version: 6.00 Build 0)  -->
<svg version="1.1" id="Layer_1" xmlns="http://www.w3.org/2000/svg" xmlns:xlink="http://www.w3.org/1999/xlink" x="0px" y="0px"
	 viewBox="0 0 512.001 512.001" style="enable-background:new 0 0 512.001 512.001;" xml:space="preserve">
<path style="fill:#BA9052;" d="M374.513,247.833c0,100.924-83.781,182.771-187.257,183.097C83.781,430.604,0,348.757,0,247.833
	c0-34.46,9.77-66.691,26.755-94.218c-15.465-10.96-25.519-28.731-25.519-48.794c0-33.302,27.699-60.299,61.872-60.299
	c24.151,0,45.066,13.483,55.258,33.15c21.319-8.275,44.56-12.863,68.891-12.941c24.331,0.077,47.571,4.665,68.891,12.941
	c10.191-19.666,31.107-33.15,55.258-33.15c34.172,0,61.871,26.997,61.871,60.298c0,20.064-10.053,37.833-25.519,48.794
	C364.744,181.142,374.513,213.373,374.513,247.833z"/>
<path style="fill:#A57541;" d="M374.46,244.817c0.017,1.005,0.053,2.007,0.053,3.015c0,100.924-83.781,182.771-187.257,183.097
	C83.781,430.604,0,348.757,0,247.833c0-1.01,0.037-2.01,0.053-3.015c37.796,62.485,107.451,104.478,187.204,104.73
	C267.009,349.295,336.666,307.302,374.46,244.817z"/>
<path style="fill:#FFCE76;" d="M492.917,383.49c-4.4,13.16-8.76,26.029-12.963,38.167c-4.114,11.876-8.458,24.14-13.062,36.771
	c-2.03,5.594-6.841,8.984-11.917,8.988v0.063h-33.106h-31.002h-44.18c-7.139,0-12.928-6.485-12.928-14.484
	c0-0.207,0.004-0.416,0.012-0.621c-0.931-22.922-10.151-33.212-16.787-40.619c-2.519-2.815-4.781-5.339-6.736-8.211
	c-13.953-20.487-20.403-37.938-28.031-58.587c-3.27-8.848-6.776-18.342-11.74-29.999c-2.267-5.327-5.574-17.333-5.813-22.408
	c-0.604-12.603,4.11-28.127,17.412-28.594c5.761-0.199,12.094,1.463,16.083,4.21c7.759,5.345,13.766,14.249,18.599,23.579
	c3.802,7.348,5.453,16.528,8.087,22.887c0.998,2.415,1.978,4.477,2.928,6.207c8.6,15.657,26.199,7.141,31.807-10.704
	c6.752-21.481,14.451-51.511,15.226-71.492c0.834-21.28,1.639-41.825,11.668-52.419c10.975-11.602,22.856-13.523,36.128-8.309
	l3.556,22.79c19.171-10.626,31.088,2.817,38.215,19.25c7.122,16.41,9.419,22.98,9.61,29.44h14.897
	c2.489,0.275,8.262,3.558,8.927,4.785c6.325,11.615,11.255,23.139,13.147,34.956C515.052,316.015,506.703,342.234,492.917,383.49z"
	/>
<path style="fill:#FFA754;" d="M492.015,250.422c-0.201,2.017-0.484,4.184-0.826,6.619c-0.339,2.423-0.808,5.15-1.43,8.331
	c-1.476,7.445-2.804,14.729-4.088,21.773c-3.101,17.004-6.029,33.065-10.319,47.398c-1.175,3.929-4.779,6.468-8.681,6.468
	c-0.86,0-1.735-0.124-2.602-0.383c-4.796-1.436-7.521-6.488-6.085-11.284c4.003-13.373,6.844-28.955,9.853-45.452
	c1.297-7.111,2.638-14.465,4.136-22.026c0.555-2.835,0.969-5.245,1.264-7.344c0.302-2.139,0.557-3.961,0.732-5.618
	c0.008,0.163,0.014,0.326,0.02,0.489h14.897C489.68,249.482,490.818,249.881,492.015,250.422z M440.888,197.574v-0.553
	c-4.356-0.408-9.242,0.642-14.728,3.683c-2.11,2.847-3.083,6.379-2.747,9.906c1.559,16.361,2.249,30.905-0.48,43.216
	c-5.885,26.543-11.117,49.713-15.506,64.303c-1.438,4.779,1.08,10.01,5.833,11.529c0.921,0.294,1.85,0.433,2.765,0.433
	c3.891,0,7.49-2.527,8.674-6.445c4.589-15.179,9.932-38.823,15.934-65.897C444.332,241.067,440.708,197.635,440.888,197.574z"/>
<path style="fill:#663310;" d="M148.402,160.273c0,5.533-4.484,10.017-10.017,10.017s-10.046-4.484-10.046-10.017
	s4.454-10.017,9.987-10.017h0.06C143.918,150.256,148.402,154.74,148.402,160.273z M237.369,150.256
	c-5.533,0-10.017,4.484-10.017,10.017s4.484,10.017,10.017,10.017h0.056c5.533,0,9.991-4.484,9.991-10.017
	S242.902,150.256,237.369,150.256z M213.75,302.391l-15.855-2.331v-51.154c0-5.533-4.484-10.017-10.017-10.017
	s-10.017,4.484-10.017,10.017v51.154l-15.855,2.331c-5.473,0.805-9.258,5.894-8.454,11.368c0.805,5.474,5.89,9.263,11.368,8.454
	l22.959-3.375l22.959,3.375c0.494,0.072,0.985,0.108,1.469,0.108c4.887,0,9.166-3.582,9.898-8.562
	C223.008,308.285,219.224,303.196,213.75,302.391z"/>
<path style="fill:#FF431C;" d="M187.876,207.057c91.479-2.511,35.885,48.826,0,64.18
	C151.991,255.883,96.396,204.546,187.876,207.057L187.876,207.057z"/>
<g>
</g>
<g>
</g>
<g>
</g>
<g>
</g>
<g>
</g>
<g>
</g>
<g>
</g>
<g>
</g>
<g>
</g>
<g>
</g>
<g>
</g>
<g>
</g>
<g>
</g>
<g>
</g>
<g>
</g>
</svg>
