<?xml version="1.0" encoding="iso-8859-1"?>
<!-- Generator: Adobe Illustrator 19.0.0, SVG Export Plug-In . SVG Version: 6.00 Build 0)  -->
<svg version="1.1" id="Layer_1" xmlns="http://www.w3.org/2000/svg" xmlns:xlink="http://www.w3.org/1999/xlink" x="0px" y="0px"
	 viewBox="0 0 512.001 512.001" style="enable-background:new 0 0 512.001 512.001;" xml:space="preserve">
<path style="fill:#6B7240;" d="M297.421,132.177c16.634,5.595,31.77,14.454,44.654,25.81l35.46-15.858
	c6.23-3.598,19.705,8.095,30.102,26.118c10.382,17.996,13.766,35.495,7.575,39.13l-0.022,0.02l-31.357,22.733
	c1.698,8.412,2.592,17.115,2.592,26.026c0,8.818-0.876,17.43-2.539,25.757l31.303,22.696l0.022,0.02
	c6.191,3.635,2.807,21.134-7.575,39.13c-10.397,18.023-23.873,29.717-30.102,26.118l-35.229-15.754
	c-12.944,11.462-28.173,20.398-44.92,26.026l-3.975,38.339l-0.004,0.032c-0.049,7.181-16.883,12.997-37.648,12.997
	c-20.794,0-37.65-5.833-37.65-13.029l-3.977-38.339c-16.747-5.628-31.974-14.562-44.918-26.023l-35.231,15.756l-0.029,0.013
	c-6.24,3.547-19.691-8.135-30.076-26.133c-10.392-18.023-13.778-35.549-7.549-39.148l31.303-22.696
	c-1.663-8.33-2.541-16.943-2.541-25.761c0-8.912,0.896-17.617,2.592-26.029l-31.354-22.733c-6.23-3.6-2.846-21.126,7.549-39.148
	c10.385-17.996,23.836-29.68,30.076-26.134l0.029,0.014l35.46,15.86c12.889-11.353,28.024-20.213,44.654-25.809l4.011-38.657
	c0-7.197,16.856-13.029,37.65-13.029c20.765,0,37.599,5.816,37.648,12.998l0.004,0.031L297.421,132.177L297.421,132.177z"/>
<path style="fill:#575935;" d="M415.434,207.396l-31.357,22.733c1.699,8.412,2.592,17.115,2.592,26.026
	c0,8.818-0.876,17.43-2.539,25.757l31.303,22.696l0.022,0.02c6.191,3.635,2.807,21.134-7.575,39.13
	c-10.397,18.023-23.873,29.717-30.102,26.118l-35.229-15.755c-12.944,11.462-28.173,20.398-44.92,26.026l-3.975,38.339l-0.004,0.032
	c-0.049,7.181-16.883,12.997-37.648,12.997h-0.001V80.488h0.001c20.765,0,37.599,5.816,37.648,12.998l0.004,0.031l4.008,38.659
	c16.634,5.595,31.77,14.454,44.654,25.81l35.46-15.858c6.23-3.598,19.705,8.095,30.102,26.118
	c10.382,17.996,13.766,35.495,7.575,39.13L415.434,207.396z"/>
<path style="fill:#B1CD3E;" d="M251.213,488.717c-0.332,5.297-4.742,9.371-9.988,9.371c-0.21,0-0.422-0.007-0.636-0.02
	c-58.942-3.68-114.422-28.742-156.22-70.571c-30.456-30.482-52.014-68.232-62.889-109.295l-1.782,6.654
	c-1.428,5.334-6.92,8.501-12.264,7.076c-5.345-1.425-8.52-6.903-7.092-12.236l13.846-51.705c1.267-4.733,5.781-7.855,10.673-7.365
	c4.886,0.486,8.698,4.435,9.003,9.325c3.373,54.117,26.347,105.056,64.692,143.433c38.341,38.369,89.227,61.36,143.282,64.735
	C247.362,478.462,251.558,483.207,251.213,488.717z M504.566,179.616c-5.344-1.425-10.835,1.744-12.262,7.077l-2.071,7.74
	c-10.822-41.309-32.445-79.292-63.057-109.926c-41.796-41.83-97.277-66.893-156.221-70.571c-5.508-0.351-10.278,3.842-10.623,9.351
	c-0.346,5.51,3.851,10.254,9.372,10.6c54.058,3.374,104.943,26.362,143.283,64.735c38.347,38.374,61.322,89.314,64.693,143.437
	c0.245,3.92,2.767,7.334,6.448,8.725c1.155,0.436,2.356,0.649,3.548,0.649c2.606,0,5.165-1.015,7.077-2.92l0.462-0.46
	c1.25-1.244,2.148-2.795,2.603-4.497l13.842-51.704C513.088,186.518,509.911,181.039,504.566,179.616z"/>
<path style="fill:#343515;" d="M255.76,194.691c33.93,0,61.434,27.526,61.434,61.481s-27.504,61.481-61.434,61.481
	c-33.928,0-61.432-27.526-61.432-61.481S221.832,194.691,255.76,194.691L255.76,194.691z"/>
<g>
</g>
<g>
</g>
<g>
</g>
<g>
</g>
<g>
</g>
<g>
</g>
<g>
</g>
<g>
</g>
<g>
</g>
<g>
</g>
<g>
</g>
<g>
</g>
<g>
</g>
<g>
</g>
<g>
</g>
</svg>
