<?xml version="1.0" encoding="iso-8859-1"?>
<!-- Generator: Adobe Illustrator 19.0.0, SVG Export Plug-In . SVG Version: 6.00 Build 0)  -->
<svg version="1.1" id="Layer_1" xmlns="http://www.w3.org/2000/svg" xmlns:xlink="http://www.w3.org/1999/xlink" x="0px" y="0px"
	 viewBox="0 0 512.001 512.001" style="enable-background:new 0 0 512.001 512.001;" xml:space="preserve">
<path style="fill:#78A097;" d="M409.756,254.988c0,92.605-75.167,167.677-167.89,167.677S73.977,347.593,73.977,254.988
	S149.143,87.311,241.866,87.311S409.756,162.382,409.756,254.988z"/>
<path style="fill:#5B7F81;" d="M395.385,187.032c9.233,20.773,14.372,43.764,14.372,67.956c0,92.605-75.167,167.677-167.89,167.677
	S73.977,347.593,73.977,254.988c0-24.192,5.139-47.183,14.372-67.956c44.574,15.955,97.172,25.18,153.519,25.18
	S350.811,202.987,395.385,187.032z"/>
<path style="fill:#97BAA8;" d="M189.221,220.94c-5.181,0-9.192-4.491-8.666-9.646c7.279-71.418,31.97-123.983,61.311-123.983
	s54.032,52.566,61.311,123.983c0.525,5.154-3.485,9.646-8.666,9.646H189.221z"/>
<path style="fill:#234848;" d="M404.35,297.337c-18.787,72.101-84.41,125.328-162.484,125.328S98.17,369.437,79.382,297.337
	c48.353,12.77,103.686,20.023,162.484,20.023S355.997,310.107,404.35,297.337z"/>
<path style="fill:#78A097;" d="M194.081,326.493c-5.632,0-10.409-4.12-11.246-9.689c-2.875-19.129-4.458-39.983-4.458-61.816
	c0-16.125,0.864-31.714,2.472-46.472c19.676,2.418,40.086,3.696,61.017,3.696s41.341-1.278,61.017-3.696
	c1.608,14.758,2.472,30.347,2.472,46.472c0,25.579-2.173,49.814-6.051,71.505H194.081z"/>
<path style="fill:#5B7F81;" d="M241.866,422.665c-27.08,0-50.196-44.782-59.321-107.832c19.272,1.647,39.085,2.526,59.321,2.526
	s40.048-0.878,59.321-2.526C292.063,377.882,268.946,422.665,241.866,422.665z"/>
<path style="fill:#B1CD3E;" d="M438.081,51.645l-3.253,69.428c-0.203,4.331-3.125,8.06-7.286,9.296
	c-4.158,1.234-8.648-0.288-11.189-3.803C366.571,57.722,280.709,24.354,197.61,41.556C108.499,60.005,40.106,133.005,27.424,223.209
	c-0.717,5.096-5.089,8.78-10.098,8.78c-0.472,0-0.951-0.032-1.432-0.1c-5.584-0.784-9.474-5.938-8.691-11.516
	C21.081,121.665,95.934,41.779,193.465,21.588c81.999-16.978,166.45,11.021,222.212,71.898l2.006-42.795
	c0.264-5.625,5.051-9.978,10.676-9.709C433.992,41.245,438.344,46.018,438.081,51.645z"/>
<path style="fill:#677C0F;" d="M253.903,489.712c-4.196,0.224-8.398,0.336-12.584,0.336c-51.79,0.002-102.388-17.057-143.709-48.674
	c-32.705-25.022-58.091-58.089-73.962-95.688l-3.326,23.772c-0.78,5.577-5.938,9.468-11.524,8.687
	c-5.584-0.779-9.479-5.933-8.698-11.51l9.632-68.833c0.688-4.914,4.817-8.621,9.783-8.78c4.954-0.16,9.325,3.273,10.328,8.133
	c21.77,105.518,115.531,177.936,222.97,172.193c5.615-0.307,10.439,4.014,10.741,9.638
	C263.854,484.607,259.534,489.41,253.903,489.712z"/>
<path style="fill:#FFCE76;" d="M490.506,400.831c-4.955,14.801-9.866,29.277-14.6,42.931c-4.632,13.359-9.527,27.154-14.711,41.36
	c-2.287,6.292-7.704,10.106-13.422,10.109v0.075h-37.287H375.57h-49.759c-8.041,0-14.56-7.294-14.56-16.292
	c0-0.233,0.006-0.469,0.014-0.699c-1.048-25.784-11.432-37.358-18.907-45.69c-2.836-3.165-5.384-6.006-7.587-9.236
	c-15.715-23.044-22.98-42.673-31.569-65.9c-3.683-9.952-7.632-20.631-13.223-33.743c-2.553-5.992-6.278-19.497-6.547-25.206
	c-0.681-14.176,4.63-31.638,19.611-32.163c6.488-0.225,13.621,1.645,18.114,4.735c8.738,6.012,15.505,16.028,20.947,26.522
	c4.283,8.265,6.141,18.59,9.109,25.745c1.124,2.717,2.228,5.035,3.299,6.983c9.686,17.611,29.507,8.033,35.824-12.04
	c7.603-24.162,16.275-57.941,17.15-80.416c0.939-23.937,1.847-47.046,13.142-58.962c12.36-13.05,25.742-15.211,40.69-9.346
	l4.005,25.635c21.592-11.953,35.014,3.169,43.041,21.652c8.022,18.458,10.607,25.848,10.823,33.114h16.778
	c2.803,0.308,9.305,4.002,10.053,5.383c7.125,13.065,12.676,26.027,14.807,39.319C515.436,324.934,506.032,354.425,490.506,400.831z
	"/>
<path style="fill:#FFA754;" d="M489.49,251.152c-0.227,2.268-0.545,4.707-0.931,7.445c-0.382,2.726-0.909,5.792-1.612,9.371
	c-1.662,8.375-3.158,16.568-4.605,24.491c-3.493,19.127-6.791,37.192-11.622,53.315c-1.325,4.42-5.383,7.275-9.777,7.276
	c-0.969,0-1.954-0.139-2.932-0.431c-5.403-1.615-8.47-7.297-6.853-12.692c4.508-15.043,7.708-32.57,11.096-51.125
	c1.46-7.999,2.971-16.27,4.659-24.775c0.626-3.189,1.092-5.899,1.424-8.26c0.339-2.406,0.627-4.457,0.825-6.319
	c0.009,0.184,0.017,0.366,0.022,0.55h16.778C486.861,250.096,488.142,250.544,489.49,251.152z M431.908,191.708v-0.622
	c-4.906-0.459-10.408,0.722-16.588,4.144c-2.376,3.202-3.473,7.175-3.093,11.143c1.756,18.402,2.533,34.763-0.54,48.611
	c-6.628,29.855-12.521,55.918-17.465,72.33c-1.619,5.376,1.215,11.26,6.57,12.968c1.036,0.331,2.084,0.487,3.114,0.487
	c4.382,0,8.435-2.842,9.768-7.248c5.169-17.073,11.185-43.669,17.947-74.123C435.787,240.63,431.707,191.776,431.908,191.708z"/>
<g>
</g>
<g>
</g>
<g>
</g>
<g>
</g>
<g>
</g>
<g>
</g>
<g>
</g>
<g>
</g>
<g>
</g>
<g>
</g>
<g>
</g>
<g>
</g>
<g>
</g>
<g>
</g>
<g>
</g>
</svg>
