<?xml version="1.0" encoding="iso-8859-1"?>
<!-- Generator: Adobe Illustrator 19.0.0, SVG Export Plug-In . SVG Version: 6.00 Build 0)  -->
<svg version="1.1" id="Layer_1" xmlns="http://www.w3.org/2000/svg" xmlns:xlink="http://www.w3.org/1999/xlink" x="0px" y="0px"
	 viewBox="0 0 512 512" style="enable-background:new 0 0 512 512;" xml:space="preserve">
<path style="fill:#5B7F81;" d="M255.996,512c-99.89,0-180.865-81.302-180.865-181.593C75.13,220.616,194.824,79.822,255.996,0
	C318.204,80.851,436.87,220.616,436.87,330.407C436.87,430.698,355.892,512,255.996,512L255.996,512z"/>
<path style="fill:#415E5C;" d="M436.87,330.407C436.87,430.698,355.892,512,255.996,512c-99.89,0-180.865-81.302-180.865-181.593
	c0-13.94,1.938-28.382,5.432-43.133c26.882,66.439,91.796,113.292,167.622,113.292c85.255,0,156.717-59.221,175.838-138.918
	C432.113,285.293,436.87,308.451,436.87,330.407z"/>
<path style="fill:#CDE044;" d="M306.604,350.283c-11.472,17.294-49.287,74.315-54.269,81.934c-1.919,2.934-5.108,4.527-8.36,4.527
	c-1.881,0-3.783-0.533-5.473-1.646c-4.611-3.04-5.896-9.257-2.869-13.887c3.949-6.039,28.245-42.691,44.004-66.458h-57.366
	c-15.446-0.12-27.585-0.214-32.516-9.475c-4.878-9.16,1.635-19.115,9.176-30.644c4.43-6.777,29.664-44.861,54.808-82.773
	l-40.431,8.009c-5.408,1.074-10.665-2.463-11.734-7.898c-1.069-5.434,2.454-10.709,7.866-11.78l63.979-12.674
	c2.6-0.516,5.296,0.028,7.496,1.509c2.201,1.481,3.724,3.78,4.237,6.389l12.621,64.229c1.069,5.435-2.454,10.709-7.866,11.78
	c-0.652,0.129-1.303,0.191-1.945,0.191c-4.675,0-8.851-3.31-9.789-8.09l-7.932-40.361c-25.081,37.819-50.211,75.744-54.61,82.474
	c-2.335,3.57-4.139,6.47-5.406,8.686c4.146,0.307,9.525,0.348,12.123,0.368h75.941c3.683,0,7.068,2.035,8.806,5.295
	C308.834,343.249,308.645,347.205,306.604,350.283z"/>
<g>
</g>
<g>
</g>
<g>
</g>
<g>
</g>
<g>
</g>
<g>
</g>
<g>
</g>
<g>
</g>
<g>
</g>
<g>
</g>
<g>
</g>
<g>
</g>
<g>
</g>
<g>
</g>
<g>
</g>
</svg>
