<?xml version="1.0" encoding="iso-8859-1"?>
<!-- Generator: Adobe Illustrator 19.0.0, SVG Export Plug-In . SVG Version: 6.00 Build 0)  -->
<svg version="1.1" id="Layer_1" xmlns="http://www.w3.org/2000/svg" xmlns:xlink="http://www.w3.org/1999/xlink" x="0px" y="0px"
	 viewBox="0 0 511.999 511.999" style="enable-background:new 0 0 511.999 511.999;" xml:space="preserve">
<path style="fill:#78A097;" d="M445.35,183.982c-5.092,2.225-11.039-0.067-13.282-5.12
	c-20.765-46.781-58.648-82.737-106.671-101.247c-48.022-18.508-100.437-17.356-147.587,3.249
	c-67.506,29.503-112.238,95.779-115.033,168.15l28.388-27.017c4.016-3.822,10.392-3.692,14.246,0.295
	c3.852,3.985,3.72,10.313-0.297,14.135l-44.951,42.781c-1.878,1.788-4.378,2.783-6.974,2.783c-0.07,0-0.14,0-0.21-0.002
	c-2.672-0.056-5.212-1.161-7.061-3.074l-43.113-44.6c-3.852-3.985-3.719-10.313,0.297-14.135c4.015-3.822,10.394-3.691,14.246,0.295
	l25.336,26.21c1.571-35.506,12.124-69.989,30.964-100.71c22.709-37.031,55.919-65.872,96.04-83.406
	c52.077-22.757,109.968-24.032,163.006-3.588c53.041,20.443,94.881,60.157,117.817,111.825
	C452.753,175.857,450.442,181.757,445.35,183.982z"/>
<path style="fill:#234848;" d="M508.943,292.293c-1.958,1.887-4.49,2.826-7.019,2.826c-2.628,0-5.254-1.014-7.229-3.032
	l-26.26-26.828c-1.552,35.359-12.019,69.708-30.721,100.359c-22.715,37.229-56.012,66.212-96.29,83.813
	c-27.501,12.018-56.632,18.044-85.803,18.046c-26.071,0.001-52.172-4.809-77.203-14.457
	c-53.04-20.443-94.881-60.157-117.817-111.826c-2.243-5.053,0.068-10.953,5.16-13.178c5.093-2.227,11.04,0.067,13.282,5.119
	c20.765,46.781,58.648,82.737,106.671,101.247c48.021,18.509,100.435,17.355,147.587-3.249
	c67.387-29.449,111.98-95.349,115.007-167.492l-27.376,26.78c-3.962,3.877-10.342,3.832-14.249-0.1
	c-3.907-3.931-3.862-10.262,0.101-14.138l44.079-43.119c1.913-1.871,4.476-2.935,7.184-2.877c2.686,0.029,5.248,1.12,7.119,3.031
	l43.986,44.937C513.029,282.118,512.935,288.447,508.943,292.293z"/>
<g>
</g>
<g>
</g>
<g>
</g>
<g>
</g>
<g>
</g>
<g>
</g>
<g>
</g>
<g>
</g>
<g>
</g>
<g>
</g>
<g>
</g>
<g>
</g>
<g>
</g>
<g>
</g>
<g>
</g>
</svg>
