<?xml version="1.0" encoding="iso-8859-1"?>
<!-- Generator: Adobe Illustrator 19.0.0, SVG Export Plug-In . SVG Version: 6.00 Build 0)  -->
<svg version="1.1" id="Layer_1" xmlns="http://www.w3.org/2000/svg" xmlns:xlink="http://www.w3.org/1999/xlink" x="0px" y="0px"
	 viewBox="0 0 512 512" style="enable-background:new 0 0 512 512;" xml:space="preserve">
<path style="fill:#97BAA8;" d="M301.561,44.168v66.024c0,5.533-4.484,10.017-10.017,10.017c-5.533,0-10.017-4.484-10.017-10.017
	V44.168c0-13.308-10.773-24.133-24.015-24.133h-3.017c-13.242,0-24.015,10.825-24.015,24.133v66.024
	c0,5.533-4.484,10.017-10.017,10.017s-10.017-4.484-10.017-10.017V44.168C210.444,19.813,230.205,0,254.494,0h3.017
	C281.801,0,301.561,19.813,301.561,44.168z"/>
<path style="fill:#CAEEC5;" d="M453.565,266.535v200.093H58.435V266.535c0-109.032,88.901-198.237,197.564-198.237h0.002
	C364.664,68.297,453.565,157.511,453.565,266.535z"/>
<path style="fill:#97BAA8;" d="M453.518,467.478C451.543,492.143,363.874,512,256.001,512c-107.875,0-195.544-19.857-197.52-44.522
	c1.976-24.665,89.645-44.522,197.52-44.522C363.874,422.957,451.543,442.813,453.518,467.478z"/>
<path style="fill:#5B7F81;" d="M342.214,467.478c-0.863,10.766-39.129,19.433-86.213,19.433c-47.086,0-85.353-8.667-86.214-19.433
	c0.863-10.766,39.129-19.433,86.214-19.433C303.085,448.046,341.352,456.712,342.214,467.478z"/>
<path style="fill:#B1CD3E;" d="M379.47,228c-2.414-12.16-6.122-23.73-10.945-34.602c-5.718,0.521-11.463,1.345-17.225,2.495
	c-49.711,9.934-89.574,41.638-111.712,83.261c-23.544-27.382-60.067-42.526-98.392-37.013c-3.91,0.561-7.738,1.33-11.483,2.283
	c-0.641,7.978-0.411,16.152,0.769,24.412c6.918,48.463,44.412,84.952,90.086,92.66c-0.001-0.043-0.001-0.086-0.002-0.129
	c0.304,8.721,1.298,17.529,3.052,26.365c2.414,12.161,6.122,23.732,10.947,34.601c5.714-0.521,11.465-1.345,17.217-2.494
	C339.843,402.242,397.009,316.354,379.47,228z"/>
<path style="fill:#7E9822;" d="M220.57,361.495c-45.675-7.708-83.17-44.197-90.086-92.66c-1.18-8.26-1.41-16.433-0.769-24.412
	c3.745-0.953,7.572-1.722,11.483-2.283c38.328-5.513,74.85,9.633,98.394,37.016C226.421,303.922,219.53,332.2,220.57,361.495
	L220.57,361.495z"/>
<path style="fill:#677C0F;" d="M312.776,308.512l-86.718,148.196c-1.863,3.184-5.214,4.96-8.655,4.96
	c-1.719,0-3.459-0.442-5.05-1.372c-4.775-2.795-6.381-8.93-3.587-13.705l86.718-148.196c2.795-4.776,8.931-6.381,13.705-3.587
	C313.964,297.601,315.57,303.737,312.776,308.512z"/>
<g>
</g>
<g>
</g>
<g>
</g>
<g>
</g>
<g>
</g>
<g>
</g>
<g>
</g>
<g>
</g>
<g>
</g>
<g>
</g>
<g>
</g>
<g>
</g>
<g>
</g>
<g>
</g>
<g>
</g>
</svg>
