<?xml version="1.0" encoding="iso-8859-1"?>
<!-- Generator: Adobe Illustrator 19.0.0, SVG Export Plug-In . SVG Version: 6.00 Build 0)  -->
<svg version="1.1" id="Layer_1" xmlns="http://www.w3.org/2000/svg" xmlns:xlink="http://www.w3.org/1999/xlink" x="0px" y="0px"
	 viewBox="0 0 512 512" style="enable-background:new 0 0 512 512;" xml:space="preserve">
<path style="fill:#A7D1C0;" d="M338.511,223.35c26.879,26.645,43.582,63.457,43.582,103.957v98.402
	c0,38.478-31.667,69.957-70.362,69.957H126.014c-38.695,0.001-70.362-31.479-70.362-69.957v-98.402
	c0-40.5,16.703-77.311,43.582-103.957C181.937,141.374,175.714,119.238,178.166,0h81.414
	C262.031,119.238,255.808,141.375,338.511,223.35z"/>
<path style="fill:#B6DDCD;" d="M217.365,404.843c0,50.16-40.899,90.824-91.35,90.824l0,0c-38.701,0-70.363-31.481-70.363-69.957
	v-98.402c0-40.5,16.703-77.311,43.582-103.957c82.702-81.976,76.479-104.112,78.931-223.35h39.198v404.842H217.365z"/>
<path style="fill:#97BAA8;" d="M289.651,10.017c0,5.533-4.511,10.017-10.075,10.017H158.17c-5.564,0-10.075-4.484-10.075-10.017
	S152.606,0,158.17,0h121.405C285.139,0,289.651,4.484,289.651,10.017z"/>
<path style="fill:#7E9822;" d="M454.763,503.443c-4.476,8.324-14.998,8.406-27.182,8.499h-58.203c-0.257,0.02-0.519,0.03-0.78,0.031
	c-9.003,0.013-29.728,0.027-50.629,0.027c-21.856,0-43.904-0.014-52.957-0.058c-12.636-0.06-23.55-0.112-28.112-8.529
	c-4.414-8.144,1.017-16.433,6.767-25.207l30.263-45.231c11.615-17.432,42.467-63.737,50.857-76.117
	c3.454-5.089,6.131-8.785,8.807-11.503c4.174-4.241,8.71-6.185,13.466-5.757c8.432,0.747,13.651,8.386,19.178,16.472
	c3.127,4.577,1.93,10.807-2.672,13.915s-10.869,1.919-13.997-2.657c-1.493-2.185-2.756-3.962-3.784-5.326
	c-1.358,1.78-2.879,3.979-4.29,6.057c-8.342,12.308-39.162,58.566-50.765,75.98l-2.623,3.938l-27.608,41.247
	c-0.608,0.927-1.163,1.786-1.665,2.58c1.782,0.058,3.875,0.092,6.276,0.104c17.428,0.083,83.193,0.059,102.664,0.032
	c0.267-0.021,0.538-0.032,0.81-0.032h58.921c1.081-0.009,3.148-0.025,5.314-0.091c-0.623-0.983-1.33-2.071-2.118-3.265
	c-3.657-5.544-25.23-37.777-39.184-58.614l-5.053,25.463c-0.947,4.773-5.16,8.08-9.874,8.08c-0.647,0-1.302-0.062-1.961-0.191
	c-5.459-1.071-9.011-6.339-7.934-11.767l9.785-49.301c0.518-2.607,2.055-4.902,4.274-6.381c2.219-1.48,4.942-2.021,7.562-1.507
	l49.585,9.729c5.46,1.071,9.011,6.339,7.934,11.767c-1.077,5.428-6.376,8.959-11.835,7.888l-25.832-5.068
	c13.962,20.852,35.686,53.309,39.381,58.909C453.534,486.626,459.197,495.195,454.763,503.443z"/>
<g>
</g>
<g>
</g>
<g>
</g>
<g>
</g>
<g>
</g>
<g>
</g>
<g>
</g>
<g>
</g>
<g>
</g>
<g>
</g>
<g>
</g>
<g>
</g>
<g>
</g>
<g>
</g>
<g>
</g>
</svg>
