<?xml version="1.0" encoding="iso-8859-1"?>
<!-- Generator: Adobe Illustrator 19.0.0, SVG Export Plug-In . SVG Version: 6.00 Build 0)  -->
<svg version="1.1" id="Layer_1" xmlns="http://www.w3.org/2000/svg" xmlns:xlink="http://www.w3.org/1999/xlink" x="0px" y="0px"
	 viewBox="0 0 512.001 512.001" style="enable-background:new 0 0 512.001 512.001;" xml:space="preserve">
<path style="fill:#874D20;" d="M453.566,387.773v67.318c0,31.43-88.452,56.91-197.565,56.91S58.436,486.521,58.436,455.09v-67.317
	H453.566z"/>
<path style="fill:#BA9052;" d="M256.001,459.754c-109.113,0-197.565-32.227-197.565-71.982s88.452-71.982,197.565-71.982
	s197.565,32.227,197.565,71.982S365.114,459.754,256.001,459.754z"/>
<path style="fill:#B1CD3E;" d="M254.364,215.453c-6.217,0.657-12.528,1.004-18.92,1.004c-97.764,0-177.01-78.987-177.01-176.427
	c0-13.411,1.512-26.47,4.355-39.026C69.009,0.346,75.316,0,81.71,0c97.759,0,177.007,78.988,177.007,176.429
	C258.717,189.84,257.208,202.899,254.364,215.453L254.364,215.453z"/>
<path style="fill:#7E9822;" d="M443.162,1.004c2.844,12.554,4.352,25.613,4.352,39.026c0,97.44-79.248,176.429-177.006,176.429
	c-6.393,0-12.702-0.346-18.92-1.004c-2.844-12.554-4.355-25.613-4.355-39.026C247.234,78.987,326.479,0,424.243,0
	C430.634,0,436.945,0.346,443.162,1.004L443.162,1.004z"/>
<path style="fill:#677C0F;" d="M358.675,110.618L266.02,218.81v163.079c0,5.537-4.484,10.025-10.017,10.025
	c-5.533,0-10.017-4.488-10.017-10.025V218.985l-98.505-108.137c-3.728-4.092-3.434-10.433,0.653-14.162
	c4.088-3.731,10.425-3.438,14.151,0.654l93.487,102.626l87.692-102.397c3.598-4.204,9.924-4.691,14.125-1.087
	C361.788,100.084,362.276,106.413,358.675,110.618z"/>
<path style="fill:#874D20;" d="M215.58,398.181c5.13-17.419,21.283-30.143,40.422-30.143c19.137,0,35.292,12.724,40.422,30.143
	H215.58z"/>
<g>
</g>
<g>
</g>
<g>
</g>
<g>
</g>
<g>
</g>
<g>
</g>
<g>
</g>
<g>
</g>
<g>
</g>
<g>
</g>
<g>
</g>
<g>
</g>
<g>
</g>
<g>
</g>
<g>
</g>
</svg>
