<?xml version="1.0" encoding="iso-8859-1"?>
<!-- Generator: Adobe Illustrator 19.0.0, SVG Export Plug-In . SVG Version: 6.00 Build 0)  -->
<svg version="1.1" id="Layer_1" xmlns="http://www.w3.org/2000/svg" xmlns:xlink="http://www.w3.org/1999/xlink" x="0px" y="0px"
	 viewBox="0 0 512.001 512.001" style="enable-background:new 0 0 512.001 512.001;" xml:space="preserve">
<path style="fill:#A57541;" d="M421.861,180.72l-0.203,241.872c-0.031,36.823-29.945,66.658-66.835,66.658H20.504l-1.025-218.897
	l21.869-160.93h45.914l21.871,160.932l121.338-89.635h34.594l0.857,89.635l121.341-89.635H421.861z"/>
<path style="fill:#874D20;" d="M300.557,444.758v44.476H22.078v-44.476L300.557,444.758L300.557,444.758z"/>
<path style="fill:#B1CD3E;" d="M242.933,506.604c-1.453-14.718-1.313-29.821,0.593-45.112
	c13.855-111.101,115.319-189.952,226.621-176.12c7.277,0.905,14.415,2.193,21.396,3.822c1.456,14.718,1.313,29.821-0.593,45.113
	c-13.855,111.101-115.319,189.952-226.618,176.12C257.055,509.52,249.916,508.233,242.933,506.604L242.933,506.604z"/>
<path style="fill:#CDE044;" d="M242.933,506.604c-1.453-14.717-1.313-29.821,0.593-45.112
	c13.855-111.101,115.319-189.952,226.621-176.12c7.277,0.905,14.415,2.193,21.396,3.822c0.081,0.821,0.139,1.647,0.21,2.471
	l-246.64,215.418C244.386,506.921,243.655,506.772,242.933,506.604z"/>
<path style="fill:#677C0F;" d="M378.638,401.234L255.313,509.083c-4.175-0.71-8.307-1.528-12.379-2.479
	c-0.411-4.162-0.679-8.358-0.831-12.576l123.324-107.846c4.164-3.642,10.498-3.224,14.147,0.933
	C383.221,391.27,382.802,397.592,378.638,401.234z"/>
<path style="fill:#B1CD3E;" d="M118.765,10.007c0,24.098-15.521,31.76-26.854,37.354c-10.881,5.37-15.692,8.218-15.692,19.413
	c0,5.527-4.488,10.007-10.025,10.007s-10.025-4.48-10.025-10.007c0-24.099,15.522-31.76,26.856-37.354
	c10.881-5.37,15.692-8.216,15.692-19.413C98.714,4.48,103.202,0,108.74,0C114.277,0,118.765,4.48,118.765,10.007z"/>
<path style="fill:#663310;" d="M119.159,348.786v41.958c0,5.527-4.488,10.007-10.025,10.007c-5.537,0-10.025-4.48-10.025-10.007
	v-41.958c0-5.527,4.488-10.007,10.025-10.007C114.671,338.778,119.159,343.258,119.159,348.786z M165.626,338.778
	c-5.537,0-10.025,4.48-10.025,10.007v41.958c0,5.527,4.488,10.007,10.025,10.007s10.025-4.48,10.025-10.007v-41.958
	C175.652,343.258,171.163,338.778,165.626,338.778z"/>
<g>
</g>
<g>
</g>
<g>
</g>
<g>
</g>
<g>
</g>
<g>
</g>
<g>
</g>
<g>
</g>
<g>
</g>
<g>
</g>
<g>
</g>
<g>
</g>
<g>
</g>
<g>
</g>
<g>
</g>
</svg>
