<?xml version="1.0" encoding="iso-8859-1"?>
<!-- Generator: Adobe Illustrator 19.0.0, SVG Export Plug-In . SVG Version: 6.00 Build 0)  -->
<svg version="1.1" id="Layer_1" xmlns="http://www.w3.org/2000/svg" xmlns:xlink="http://www.w3.org/1999/xlink" x="0px" y="0px"
	 viewBox="0 0 512.004 512.004" style="enable-background:new 0 0 512.004 512.004;" xml:space="preserve">
<path style="fill:#CDE044;" d="M237.306,511.918c-45.06,0.081-135.131,0.167-180.187-0.073c-56.647-0.302-58.921-4.617-32.38-49.581
	l100.713-167.077c27.372-45.42,54.525-90.965,82.011-136.326c15.698,1.789,31.925,2.735,48.541,2.735
	c16.582,0,32.787-0.943,48.461-2.726l82.163,136.317c33.155,55.001,66.631,109.827,99.455,165.009
	c28.055,47.146,25.287,51.184-28.632,51.649H315.938L237.306,511.918z"/>
<path style="fill:#A57541;" d="M457.452,511.844H315.939l-65.703,0.061c15.29-23.467,36.996-56.708,52.073-79.33
	c2.054-3.081,2.243-7.041,0.495-10.303c-1.749-3.263-5.152-5.3-8.855-5.3h-79.092c-2.833-0.022-8.812-0.069-13.216-0.429
	c1.943-3.452,4.727-7.688,5.926-9.511c5.279-8.039,38.205-57.478,57.352-86.216l8.431,42.69c0.945,4.784,5.143,8.097,9.845,8.097
	c0.644,0,1.3-0.062,1.956-0.193c5.443-1.073,8.984-6.353,7.91-11.793l-13.149-66.581c-1.074-5.439-6.358-8.979-11.801-7.905
	l-66.621,13.138c-5.444,1.073-8.986,6.353-7.91,11.793c1.074,5.441,6.359,8.983,11.8,7.906l42.941-8.468
	c-19.14,28.729-52.23,78.414-57.549,86.514c-7.792,11.856-14.521,22.096-9.541,31.403c5.035,9.413,17.585,9.51,33.549,9.633h60.464
	c-16.616,25.168-36.775,56.111-48.997,74.887c-47.482,0.073-127.506,0.13-169.126-0.091c-56.647-0.302-58.921-4.617-32.38-49.581
	l100.713-167.077c27.372-45.42,54.525-90.965,82.011-136.326c15.698,1.789,31.925,2.735,48.541,2.735
	c16.582,0,32.787-0.943,48.461-2.726l82.163,136.317c33.155,55.001,66.631,109.827,99.455,165.009
	C514.139,507.342,511.371,511.38,457.452,511.844z"/>
<path style="fill:#663310;" d="M457.452,511.844H315.939l-65.703,0.061c15.29-23.467,36.996-56.708,52.073-79.33
	c2.052-3.081,2.243-7.041,0.495-10.303c-1.747-3.262-5.152-5.3-8.857-5.3h-79.092c-2.833-0.022-8.812-0.069-13.216-0.429
	c1.943-3.453,4.727-7.688,5.926-9.511c5.279-8.039,38.205-57.478,57.352-86.216l8.431,42.69c0.945,4.784,5.143,8.097,9.845,8.097
	c0.644,0,1.3-0.062,1.956-0.191c5.443-1.074,8.984-6.353,7.91-11.793l-13.15-66.581c-1.074-5.439-6.358-8.979-11.801-7.905
	l-66.621,13.138c-5.444,1.073-8.986,6.353-7.91,11.793c1.074,5.441,6.359,8.983,11.8,7.906l42.941-8.468
	c-19.14,28.729-52.231,78.414-57.549,86.514c-7.792,11.856-14.521,22.096-9.542,31.403c5.035,9.413,17.585,9.51,33.549,9.633h60.464
	c-16.616,25.168-36.774,56.111-48.997,74.887c-47.482,0.073-127.506,0.13-169.126-0.092c-56.647-0.302-58.921-4.617-32.38-49.579
	l100.713-167.078c7.978-13.24,15.938-26.49,23.894-39.743h213.329l23.955,39.743c33.155,55.002,66.631,109.827,99.455,165.009
	C514.139,507.342,511.371,511.38,457.452,511.844z"/>
<path style="fill:#FFBB5E;" d="M341.3,10.041c0,38.012-24.036,49.89-43.351,59.433c-18.674,9.228-32.165,15.894-32.165,41.436
	c0,5.544-4.498,10.04-10.045,10.04s-10.045-4.494-10.045-10.04c0-38.013,24.036-49.891,43.351-59.434
	c18.672-9.228,32.165-15.894,32.165-41.436c0-5.544,4.498-10.04,10.045-10.04C336.802,0.001,341.3,4.496,341.3,10.041z"/>
<g>
</g>
<g>
</g>
<g>
</g>
<g>
</g>
<g>
</g>
<g>
</g>
<g>
</g>
<g>
</g>
<g>
</g>
<g>
</g>
<g>
</g>
<g>
</g>
<g>
</g>
<g>
</g>
<g>
</g>
</svg>
