<?xml version="1.0" encoding="iso-8859-1"?>
<!-- Generator: Adobe Illustrator 19.0.0, SVG Export Plug-In . SVG Version: 6.00 Build 0)  -->
<svg version="1.1" id="Layer_1" xmlns="http://www.w3.org/2000/svg" xmlns:xlink="http://www.w3.org/1999/xlink" x="0px" y="0px"
	 viewBox="0 0 511.999 511.999" style="enable-background:new 0 0 511.999 511.999;" xml:space="preserve">
<path style="fill:#7F7F7F;" d="M245.649,0c129.525,0,234.519,106.161,234.519,237.119S375.174,474.239,245.649,474.239
	S11.13,368.079,11.13,237.119S116.124,0,245.649,0L245.649,0z"/>
<path style="fill:#5B5B5B;" d="M245.649,47.367c103.651,0,187.671,84.954,187.671,189.753s-84.021,189.752-187.671,189.752
	S57.978,341.918,57.978,237.119S141.998,47.367,245.649,47.367L245.649,47.367z"/>
<path style="fill:#8C8C8C;" d="M245.649,110.224c69.316,0,125.505,56.813,125.505,126.897s-56.189,126.896-125.505,126.896
	s-125.505-56.812-125.505-126.896S176.333,110.224,245.649,110.224L245.649,110.224z"/>
<path style="fill:#7E9822;" d="M499.284,503.681c-4.37,8.096-14.283,8.174-25.761,8.264h-53.851
	c-0.247,0.019-0.496,0.028-0.749,0.029c-8.347,0.013-27.58,0.025-46.961,0.025c-20.193,0-40.546-0.013-48.916-0.053
	c-11.897-0.058-22.172-0.108-26.624-8.292c-4.321-7.943,0.807-15.899,6.235-24.322l29.614-45.023
	c12.354-18.853,38.061-58.08,45.481-69.206c3.109-4.666,5.698-8.309,8.218-10.911c4.017-4.154,8.415-6.057,13.073-5.642
	c8.185,0.725,13.109,8.053,18.322,15.812c3.088,4.596,1.857,10.818-2.748,13.899c-4.607,3.08-10.842,1.853-13.93-2.743
	c-1.099-1.635-2.06-3.024-2.882-4.163c-1.083,1.491-2.244,3.207-3.334,4.843c-7.377,11.061-34.019,51.714-45.394,69.074
	l-4.033,6.153l-25.55,38.822c-0.36,0.559-0.7,1.092-1.021,1.599c1.379,0.035,2.936,0.056,4.67,0.065
	c16.128,0.079,76.935,0.056,94.985,0.03c0.257-0.02,0.516-0.03,0.779-0.03h54.536c0.8-0.007,2.207-0.018,3.772-0.055
	c-0.441-0.697-0.92-1.446-1.439-2.245c-2.984-4.595-19.145-29.161-35.267-53.648l-4.346,22.263
	c-0.934,4.783-5.136,8.104-9.844,8.104c-0.637,0-1.281-0.06-1.93-0.186c-5.443-1.057-8.995-6.318-7.935-11.748l9.059-46.404
	c0.511-2.617,2.046-4.922,4.264-6.406c2.219-1.484,4.941-2.025,7.559-1.503l45.894,9.157c5.437,1.085,8.963,6.362,7.876,11.787
	c-1.087,5.426-6.378,8.943-11.813,7.859l-22.355-4.46c16.258,24.693,32.66,49.626,35.689,54.288
	C498.28,487.422,503.62,495.644,499.284,503.681z"/>
<path style="fill:#C1C1C1;" d="M295.706,247.137c-1.32,6.781-3.949,13.085-7.618,18.63l53.075,53.664
	c-4.322,5.122-9.039,9.892-14.106,14.261l-53.074-53.663c-5.448,3.686-11.637,6.338-18.295,7.68v75.902
	c-3.312,0.265-6.659,0.404-10.04,0.404s-6.727-0.139-10.04-0.404v-75.901c-6.657-1.343-12.846-3.995-18.295-7.68l-53.074,53.662
	c-5.067-4.37-9.783-9.139-14.106-14.261l53.074-53.662c-3.669-5.545-6.3-11.849-7.619-18.631h-75.058
	c-0.255-3.306-0.388-6.646-0.388-10.017s0.132-6.712,0.388-10.017h75.058c1.32-6.782,3.95-13.086,7.619-18.631l-53.074-53.662
	c4.322-5.122,9.039-9.892,14.106-14.261l53.074,53.663c5.448-3.685,11.638-6.337,18.295-7.68v-75.904
	c3.312-0.265,6.659-0.405,10.04-0.405s6.727,0.139,10.04,0.405v75.902c6.657,1.343,12.846,3.995,18.295,7.68l53.074-53.663
	c5.065,4.37,9.783,9.139,14.106,14.261l-53.075,53.664c3.669,5.545,6.298,11.849,7.618,18.63h75.06
	c0.256,3.306,0.388,6.646,0.388,10.017s-0.132,6.712-0.388,10.017H295.706z"/>
<path style="fill:#E5E5E5;" d="M245.649,208.778c15.481,0,28.029,12.689,28.029,28.341s-12.547,28.341-28.029,28.341
	s-28.03-12.689-28.03-28.341S230.167,208.778,245.649,208.778L245.649,208.778z"/>
<g>
</g>
<g>
</g>
<g>
</g>
<g>
</g>
<g>
</g>
<g>
</g>
<g>
</g>
<g>
</g>
<g>
</g>
<g>
</g>
<g>
</g>
<g>
</g>
<g>
</g>
<g>
</g>
<g>
</g>
</svg>
