<?xml version="1.0" encoding="iso-8859-1"?>
<!-- Generator: Adobe Illustrator 19.0.0, SVG Export Plug-In . SVG Version: 6.00 Build 0)  -->
<svg version="1.1" id="Layer_1" xmlns="http://www.w3.org/2000/svg" xmlns:xlink="http://www.w3.org/1999/xlink" x="0px" y="0px"
	 viewBox="0 0 511.998 511.998" style="enable-background:new 0 0 511.998 511.998;" xml:space="preserve">
<path style="fill:#7E9822;" d="M198.798,428.501l-41.901,41.61c-1.968,1.955-4.548,2.932-7.128,2.932
	c-2.58,0-5.159-0.977-7.127-2.932c-3.936-3.909-3.937-10.247,0-14.155l24.662-24.49c-14.825,0.021-29.197,0.036-43.296,0.036
	c-22.288,0-43.893-0.037-65.529-0.141c-34.29-0.167-49.982-1.465-56.342-13.188c-6.232-11.488,1.812-25.255,15.8-46.565
	l100.049-149.297c3.084-4.602,9.342-5.849,13.975-2.788c4.635,3.063,5.891,9.276,2.807,13.877L34.77,382.617
	c-3.74,5.698-13.378,20.381-14.487,25.904c6.043,2.665,28.413,2.774,38.294,2.822c35.296,0.173,70.538,0.159,108.794,0.106
	l-24.73-24.558c-3.936-3.909-3.936-10.247,0-14.155c3.938-3.908,10.319-3.908,14.255,0l41.901,41.611
	C202.734,418.255,202.734,424.592,198.798,428.501z"/>
<path style="fill:#677C0F;" d="M509.894,418.239c-6.549,12.164-23.819,12.888-53.782,13.119H256.04
	c-5.566,0-10.08-4.481-10.08-10.009s4.512-10.008,10.08-10.008h199.994c9.135-0.071,29.948-0.232,35.705-2.726
	c-1.101-5.825-11.589-21.681-15.699-27.896c-16.994-25.697-34.044-51.128-52.474-78.532l-6.747,33.97
	c-0.948,4.769-5.161,8.074-9.878,8.074c-0.647,0-1.303-0.062-1.961-0.19c-5.461-1.071-9.016-6.334-7.938-11.757l11.468-57.731
	c0.518-2.604,2.056-4.898,4.276-6.377c2.221-1.478,4.942-2.021,7.564-1.506l58.14,11.391c5.462,1.07,9.016,6.334,7.937,11.757
	c-1.077,5.424-6.382,8.951-11.839,7.881l-34.318-6.724c18.479,27.475,35.573,52.972,52.622,78.755
	C507.68,392.091,516.205,406.515,509.894,418.239z"/>
<path style="fill:#B1CD3E;" d="M391.293,236.187c-1.716,1.134-3.656,1.677-5.574,1.677c-3.26,0-6.459-1.568-8.401-4.466
	L277.321,84.18c-4.136-6.046-16.885-24.683-21.226-25.207c-4.561,0.52-18.146,20.529-22.609,27.105
	c-17.493,25.766-35.012,51.93-52.825,78.608l34.443-6.748c5.457-1.071,10.762,2.458,11.839,7.881
	c1.077,5.423-2.477,10.687-7.937,11.757l-58.139,11.392c-0.648,0.127-1.301,0.189-1.951,0.189c-1.985,0-3.94-0.582-5.613-1.695
	c-2.221-1.478-3.759-3.772-4.276-6.377l-11.469-57.731c-1.077-5.423,2.478-10.686,7.938-11.757
	c5.465-1.075,10.762,2.459,11.839,7.883l6.723,33.843c17.766-26.608,35.246-52.71,52.709-78.435
	c15.17-22.34,25.384-35.907,39.314-35.931c0.012,0,0.026,0,0.038,0c13.648,0,23.437,12.869,37.93,34.055L394.1,222.308
	C397.185,226.912,395.928,233.124,391.293,236.187z"/>
<g>
</g>
<g>
</g>
<g>
</g>
<g>
</g>
<g>
</g>
<g>
</g>
<g>
</g>
<g>
</g>
<g>
</g>
<g>
</g>
<g>
</g>
<g>
</g>
<g>
</g>
<g>
</g>
<g>
</g>
</svg>
