<?xml version="1.0" encoding="iso-8859-1"?>
<!-- Generator: Adobe Illustrator 19.0.0, SVG Export Plug-In . SVG Version: 6.00 Build 0)  -->
<svg version="1.1" id="Layer_1" xmlns="http://www.w3.org/2000/svg" xmlns:xlink="http://www.w3.org/1999/xlink" x="0px" y="0px"
	 viewBox="0 0 511.999 511.999" style="enable-background:new 0 0 511.999 511.999;" xml:space="preserve">
<path style="fill:#FFEE88;" d="M198.593,503.456H44.521V0h230.894l152.348,152.425v351.032H198.593z"/>
<path style="fill:#7E9822;" d="M465.903,503.443c-4.448,8.324-14.906,8.406-27.016,8.499h-57.846c-0.254,0.02-0.51,0.03-0.768,0.03
	c-8.967,0.013-29.654,0.027-50.485,0.027c-21.651,0-43.459-0.014-52.444-0.057c-12.561-0.06-23.408-0.112-27.942-8.531
	c-4.387-8.144,1.011-16.432,6.725-25.206l31.939-48.053c13.225-19.969,40.744-61.523,48.678-73.296
	c3.319-4.93,6.078-8.773,8.749-11.501c4.143-4.238,8.646-6.175,13.378-5.757c8.382,0.746,13.568,8.385,19.06,16.472
	c3.108,4.577,1.918,10.807-2.656,13.915c-4.576,3.109-10.801,1.92-13.909-2.657c-1.484-2.185-2.739-3.964-3.762-5.327
	c-1.351,1.782-2.858,3.977-4.254,6.052c-7.891,11.708-35.38,53.217-48.59,73.165l-4.479,6.762l-27.43,41.245
	c-0.603,0.927-1.156,1.788-1.655,2.58c1.771,0.058,3.854,0.092,6.243,0.103c17.352,0.083,82.697,0.058,102.022,0.031
	c0.264-0.021,0.529-0.031,0.798-0.031h58.552c1.075-0.009,3.131-0.025,5.285-0.091c-0.62-0.984-1.321-2.072-2.105-3.266
	c-3.149-4.797-20.398-30.747-38.941-58.614l-5.023,25.464c-0.942,4.773-5.127,8.08-9.811,8.08c-0.643,0-1.294-0.062-1.95-0.191
	c-5.425-1.071-8.954-6.34-7.884-11.767l9.726-49.3c1.071-5.427,6.333-8.958,11.762-7.888l49.273,9.729
	c5.425,1.071,8.956,6.339,7.885,11.767c-1.071,5.427-6.333,8.96-11.762,7.888l-25.67-5.068
	c18.61,27.969,35.957,54.065,39.132,58.903C464.683,486.627,470.308,495.196,465.903,503.443z"/>
<path style="fill:#F4C951;" d="M275.415,0l152.348,152.425H275.415V0L275.415,0z"/>
<g>
</g>
<g>
</g>
<g>
</g>
<g>
</g>
<g>
</g>
<g>
</g>
<g>
</g>
<g>
</g>
<g>
</g>
<g>
</g>
<g>
</g>
<g>
</g>
<g>
</g>
<g>
</g>
<g>
</g>
</svg>
