<?xml version="1.0" encoding="iso-8859-1"?>
<!-- Generator: Adobe Illustrator 19.0.0, SVG Export Plug-In . SVG Version: 6.00 Build 0)  -->
<svg version="1.1" id="Layer_1" xmlns="http://www.w3.org/2000/svg" xmlns:xlink="http://www.w3.org/1999/xlink" x="0px" y="0px"
	 viewBox="0 0 512 512" style="enable-background:new 0 0 512 512;" xml:space="preserve">
<path style="fill:#234848;" d="M243.475,501.979c0,5.533-4.494,10.017-10.04,10.017h-34.316c-0.022,0-0.042,0.003-0.065,0.003
	c-1.734,0-3.365-0.439-4.788-1.211c-3.131-1.696-5.257-5.005-5.257-8.81c0-0.04,0.006-0.079,0.006-0.118V194.695
	c0-5.533,4.494-10.017,10.04-10.017s10.04,4.484,10.04,10.017v297.267h24.341C238.981,491.962,243.475,496.446,243.475,501.979z
	 M139.604,194.695c0-5.533-4.494-10.017-10.04-10.017c-5.545,0-10.04,4.484-10.04,10.017v297.267H95.189
	c-5.545,0-10.04,4.484-10.04,10.017c0,5.533,4.494,10.017,10.04,10.017h34.31c0.022,0,0.042,0.003,0.065,0.003
	c1.733,0,3.364-0.439,4.787-1.21c3.132-1.695,5.259-5.005,5.259-8.811c0-0.043-0.006-0.086-0.007-0.129V194.695H139.604z"/>
<path style="fill:#FF431C;" d="M353,296.391c-1.716,5.261-7.384,8.134-12.655,6.423l-26.409-8.583c-2-0.65-3.745-1.911-4.99-3.604
	l-55.058-74.971c-0.491-0.669-0.896-1.395-1.208-2.164c-12.206-30.098-25.934-48.137-43.586-56.293v188.387h-89.57V157.204
	c-17.646,8.159-31.373,26.197-43.579,56.29L24.914,339.322c-1.581,3.897-5.34,6.262-9.309,6.262c-1.254,0-2.529-0.236-3.763-0.735
	c-5.14-2.075-7.621-7.915-5.541-13.044l51.031-125.831c9.15-22.561,18.832-38.558,30.468-50.344
	c15.518-15.718,34.704-23.688,57.026-23.688h38.969c22.322,0,41.508,7.969,57.028,23.687c11.439,11.586,20.986,27.235,29.994,49.179
	l52.413,71.371l23.333,7.583C351.835,285.477,354.717,291.131,353,296.391z"/>
<path style="fill:#FFCE76;" d="M164.309,0c24.603,0,44.554,19.959,44.554,44.574c0,24.622-19.951,44.577-44.554,44.577
	s-44.551-19.956-44.551-44.577C119.758,19.959,139.706,0,164.309,0L164.309,0z"/>
<path style="fill:#FFBB5E;" d="M208.864,44.574c0,24.622-19.951,44.577-44.554,44.577c-16.495,0-30.887-8.977-38.588-22.31
	c4.418,1.468,9.137,2.275,14.047,2.275c24.603,0,44.554-19.956,44.554-44.577c0-8.112-2.177-15.712-5.964-22.264
	C196.076,8.165,208.864,24.872,208.864,44.574z"/>
<path style="fill:#BA9052;" d="M506.435,335.561l-45.019,176.435H340.302l-45.014-176.435L506.435,335.561L506.435,335.561z"/>
<path style="fill:#391B10;" d="M409.99,306.426c0,5.533-4.452,10.017-9.996,10.017h-0.086c-5.545,0-10.04-4.484-10.04-10.017
	c0-5.533,4.494-10.017,10.04-10.017S409.99,300.893,409.99,306.426z M373.809,346.51l-15.195,8.303
	c-4.864,2.658-6.647,8.745-3.984,13.598c1.825,3.326,5.265,5.208,8.814,5.208c1.629,0,3.284-0.396,4.814-1.232l15.195-8.303
	c4.864-2.658,6.647-8.745,3.984-13.598C384.773,345.632,378.672,343.854,373.809,346.51z M378.342,436.402
	c-5.545,0-10.04,4.484-10.04,10.017c0,5.533,4.494,10.017,10.04,10.017h0.079c5.545,0,10-4.484,10-10.017
	C388.421,440.887,383.888,436.402,378.342,436.402z M443.11,380.324l-15.189-8.307c-4.861-2.659-10.965-0.882-13.629,3.969
	c-2.665,4.852-0.884,10.94,3.978,13.599l15.189,8.307c1.532,0.837,3.186,1.234,4.816,1.234c3.548,0,6.988-1.881,8.812-5.205
	C449.754,389.071,447.973,382.982,443.11,380.324z"/>
<g>
</g>
<g>
</g>
<g>
</g>
<g>
</g>
<g>
</g>
<g>
</g>
<g>
</g>
<g>
</g>
<g>
</g>
<g>
</g>
<g>
</g>
<g>
</g>
<g>
</g>
<g>
</g>
<g>
</g>
</svg>
