<?xml version="1.0" encoding="iso-8859-1"?>
<!-- Generator: Adobe Illustrator 19.0.0, SVG Export Plug-In . SVG Version: 6.00 Build 0)  -->
<svg version="1.1" id="Layer_1" xmlns="http://www.w3.org/2000/svg" xmlns:xlink="http://www.w3.org/1999/xlink" x="0px" y="0px"
	 viewBox="0 0 511.999 511.999" style="enable-background:new 0 0 511.999 511.999;" xml:space="preserve">
<path style="fill:#BACEC3;" d="M394.245,73.368v368.007c0,14.017-11.547,25.496-25.655,25.496H92.437
	c-14.108,0-25.655-11.48-25.655-25.496V73.368c0-14.021,11.547-25.495,25.655-25.495h162.162H368.59
	C382.698,47.873,394.245,59.347,394.245,73.368z"/>
<path style="fill:#CCDBD2;" d="M267.014,411.4H116.418l55.768-305.605h150.596L267.014,411.4z"/>
<path style="fill:#909E9A;" d="M394.245,73.368v43.557H66.782V73.368c0-14.021,11.547-25.494,25.655-25.494h162.162H368.59
	C382.698,47.874,394.245,59.347,394.245,73.368z M66.782,441.375c0,14.017,11.547,25.496,25.655,25.496h276.153
	c14.108,0,25.655-11.48,25.655-25.496v-41.106H66.782V441.375z"/>
<path style="fill:#4D5B5B;" d="M240.644,400.269c0,5.533-4.518,10.017-10.092,10.017s-10.128-4.484-10.128-10.017
	c0-5.533,4.482-10.017,10.056-10.017h0.071C236.126,390.252,240.644,394.736,240.644,400.269z M244.149,106.908H216.88
	c-5.574,0-10.092,4.484-10.092,10.017c0,5.533,4.518,10.017,10.092,10.017h27.268c5.574,0,10.092-4.484,10.092-10.017
	C254.241,111.392,249.723,106.908,244.149,106.908z"/>
<path style="fill:#A7D1C0;" d="M404.336,73.368c0,5.533-4.518,10.017-10.092,10.017c-5.574,0-10.092-4.484-10.092-10.017
	c0-8.534-6.979-15.478-15.558-15.478c-5.574,0-10.092-4.484-10.092-10.017s4.518-10.017,10.092-10.017
	C388.302,37.856,404.336,53.787,404.336,73.368z M361.307,0c-5.574,0-10.092,4.484-10.092,10.017s4.518,10.017,10.092,10.017
	c35.139,0,63.726,28.42,63.726,63.353c0,5.533,4.518,10.017,10.092,10.017s10.092-4.484,10.092-10.017
	C445.217,37.407,407.575,0,361.307,0z"/>
<path style="fill:#7E9822;" d="M433.939,503.635c-4.39,8.143-14.473,8.221-26.149,8.31h-54.867c-0.248,0.019-0.5,0.028-0.752,0.029
	c-8.504,0.012-28.099,0.025-47.843,0.025c-20.572,0-41.307-0.013-49.833-0.053c-12.102-0.058-22.555-0.108-27.026-8.338
	c-4.332-7.974,0.879-15.928,6.398-24.347l28.995-43.323c11.878-17.822,39.696-59.559,47.504-71.076
	c3.279-4.828,5.821-8.337,8.372-10.925c4.063-4.129,8.499-6.01,13.175-5.602c8.239,0.728,13.235,8.042,18.526,15.784
	c3.128,4.579,1.926,10.808-2.688,13.913c-4.614,3.105-10.888,1.911-14.017-2.668c-1.183-1.731-2.209-3.187-3.076-4.362
	c-1.144,1.538-2.387,3.339-3.551,5.053c-7.759,11.444-35.545,53.134-47.411,70.938l-2.928,4.393L250.73,490.27
	c-0.361,0.55-0.701,1.075-1.022,1.575c1.437,0.037,3.065,0.059,4.884,0.068c16.433,0.079,78.404,0.056,96.781,0.03
	c0.258-0.02,0.52-0.03,0.782-0.03h55.556c0.84-0.007,2.327-0.018,3.974-0.058c-0.444-0.691-0.928-1.432-1.45-2.223
	c-2.955-4.472-19.161-28.69-36.152-54.057l-4.49,22.608c-0.947,4.774-5.168,8.082-9.891,8.082c-0.647,0-1.303-0.062-1.962-0.19
	c-5.468-1.07-9.027-6.338-7.949-11.766l9.228-46.473c0.518-2.607,2.058-4.903,4.282-6.383c2.224-1.48,4.95-2.023,7.575-1.507
	l46.759,9.169c5.467,1.073,9.025,6.342,7.944,11.769c-1.081,5.427-6.388,8.961-11.856,7.885l-22.981-4.507
	c13.523,20.191,32.943,49.197,36.37,54.382C432.861,487.347,438.29,495.565,433.939,503.635z"/>
<g>
</g>
<g>
</g>
<g>
</g>
<g>
</g>
<g>
</g>
<g>
</g>
<g>
</g>
<g>
</g>
<g>
</g>
<g>
</g>
<g>
</g>
<g>
</g>
<g>
</g>
<g>
</g>
<g>
</g>
</svg>
