<?xml version="1.0" encoding="iso-8859-1"?>
<!-- Generator: Adobe Illustrator 19.0.0, SVG Export Plug-In . SVG Version: 6.00 Build 0)  -->
<svg version="1.1" id="Layer_1" xmlns="http://www.w3.org/2000/svg" xmlns:xlink="http://www.w3.org/1999/xlink" x="0px" y="0px"
	 viewBox="0 0 511.999 511.999" style="enable-background:new 0 0 511.999 511.999;" xml:space="preserve">
<path style="fill:#A7141C;" d="M400.264,117.218v152.77v51.669V395.6c0,38.255-31.462,69.554-69.895,69.554H122.764
	c-38.433,0-69.895-31.299-69.895-69.554v-73.944v-51.669v-152.77c0-20.582,12.309-38.441,29.961-46.651v-23.45h143.736h143.736
	v23.45C387.955,78.777,400.264,96.636,400.264,117.218z"/>
<path style="fill:#D1141C;" d="M252.931,47.117c7.555,8.95,12.125,20.468,12.125,33.001v152.77v51.669V358.5
	c0,38.255-31.462,69.554-69.895,69.554H178.07c-38.433,0-69.895-31.299-69.895-69.554v-73.944v-51.669V80.118
	c0-12.533,4.57-24.051,12.124-33.001H252.931z"/>
<path style="fill:#4D5B5B;" d="M370.305,48.66v19.236h-0.078c0.047,0.492,0.078,0.986,0.078,1.483
	c0,26.021-64.356,47.117-143.738,47.117c-79.387,0-143.738-21.097-143.738-47.117c0-0.496,0.031-0.99,0.078-1.483h-0.078V47.46
	c0-1.623,1.319-2.938,2.946-2.938h18.672c25.367-13.363,70.569-22.261,122.12-22.261c51.547,0,96.75,8.898,122.119,22.261h17.47
	C368.447,44.522,370.305,46.375,370.305,48.66z"/>
<path style="fill:#A9B7AF;" d="M226.568,0c79.381,0,143.738,21.097,143.738,47.117S305.95,94.235,226.568,94.235
	c-79.387,0-143.738-21.097-143.738-47.117S147.18,0,226.568,0L226.568,0z"/>
<path style="fill:#909E9A;" d="M226.568,0c76.723,0,139.406,19.709,143.518,44.522H83.05C87.16,19.709,149.838,0,226.568,0z"/>
<path style="fill:#4D5B5B;" d="M203.175,47.117c0,5.533-4.497,10.017-10.044,10.017h-20.933c-5.547,0-10.044-4.484-10.044-10.017
	S166.65,37.1,172.198,37.1h20.933C198.678,37.1,203.175,41.584,203.175,47.117z"/>
<path style="fill:#7E9822;" d="M457.557,503.502c-4.429,8.27-14.785,8.349-26.776,8.441h-56.976c-0.253,0.02-0.506,0.029-0.764,0.03
	c-8.836,0.013-29.219,0.026-49.742,0.026c-21.33,0-42.813-0.013-51.661-0.056c-12.435-0.06-23.174-0.111-27.687-8.472
	c-4.366-8.091,0.979-16.257,6.64-24.904l30.01-44.891c12.354-18.554,41.281-62.005,49.407-74.006
	c3.389-4.995,6.015-8.625,8.645-11.297c4.12-4.195,8.61-6.118,13.319-5.693c8.338,0.74,13.47,8.259,18.902,16.219
	c3.121,4.573,1.934,10.804-2.651,13.917c-4.587,3.114-10.833,1.928-13.954-2.645c-1.395-2.042-2.583-3.72-3.561-5.026
	c-1.291,1.706-2.723,3.78-4.056,5.744c-8.077,11.928-38.036,56.928-49.314,73.868l-2.95,4.431L267.359,489.6
	c-0.516,0.788-0.993,1.527-1.431,2.215c1.668,0.05,3.605,0.08,5.808,0.091c17.083,0.082,81.445,0.058,100.498,0.031
	c0.262-0.021,0.526-0.031,0.795-0.031h57.678c1.001-0.008,2.871-0.022,4.865-0.079c-0.56-0.88-1.185-1.843-1.875-2.888
	c-3.148-4.769-20.224-30.315-38.126-57.074l-4.863,24.52c-0.946,4.771-5.145,8.075-9.843,8.075c-0.647,0-1.301-0.062-1.96-0.191
	c-5.442-1.074-8.98-6.344-7.904-11.772l9.581-48.304c1.076-5.424,6.353-8.954,11.794-7.885l48.544,9.531
	c5.443,1.069,8.987,6.335,7.915,11.764c-1.072,5.428-6.355,8.961-11.795,7.894l-24.842-4.877
	c17.953,26.834,35.105,52.494,38.281,57.305C456.371,486.867,461.942,495.311,457.557,503.502z"/>
<g>
</g>
<g>
</g>
<g>
</g>
<g>
</g>
<g>
</g>
<g>
</g>
<g>
</g>
<g>
</g>
<g>
</g>
<g>
</g>
<g>
</g>
<g>
</g>
<g>
</g>
<g>
</g>
<g>
</g>
</svg>
