<?xml version="1.0" encoding="iso-8859-1"?>
<!-- Generator: Adobe Illustrator 19.0.0, SVG Export Plug-In . SVG Version: 6.00 Build 0)  -->
<svg version="1.1" id="Layer_1" xmlns="http://www.w3.org/2000/svg" xmlns:xlink="http://www.w3.org/1999/xlink" x="0px" y="0px"
	 viewBox="0 0 511.999 511.999" style="enable-background:new 0 0 511.999 511.999;" xml:space="preserve">
<path style="fill:#D1141C;" d="M142.851,85.309V0h92.308v85.309H142.851L142.851,85.309z"/>
<path style="fill:#FF431C;" d="M142.851,85.309V0h46.153v85.309H142.851L142.851,85.309z"/>
<path style="fill:#CDE044;" d="M299.991,329.904v112.581c0,35.303-29.121,64.2-64.706,64.2h-24.322h-21.959h-21.959h-24.322
	c-35.585,0-64.706-28.898-64.706-64.2V329.904c0-56.95-3.607-92.291,31.795-91.454c89.16,2.114-101.482-181.526,41.404-181.526
	h37.788h37.788c142.886,0-47.756,183.64,41.404,181.526C303.599,237.613,299.991,272.955,299.991,329.904z"/>
<path style="fill:#DCF451;" d="M189.003,460.769c0,25.358-20.72,45.916-46.279,45.916l0,0c-35.59,0-64.708-28.89-64.708-64.2
	V329.904c0-56.95-3.607-92.291,31.795-91.454c89.16,2.114-101.482-181.526,41.404-181.526h37.788V460.769z"/>
<path style="fill:#7E9822;" d="M432.498,503.443c-4.486,8.324-15.029,8.406-27.241,8.499h-58.337c-0.256,0.02-0.514,0.03-0.775,0.03
	c-9.374,0.013-30.235,0.027-51.16,0.027c-21.727,0-43.526-0.014-52.64-0.058c-12.665-0.06-23.602-0.112-28.174-8.531
	c-4.423-8.145,1.022-16.433,6.785-25.207l32.248-48.114c13.325-19.955,41.054-61.476,49.046-73.236c3.347-4.93,6.13-8.773,8.82-11.5
	c4.182-4.242,8.726-6.177,13.495-5.758c8.45,0.747,13.68,8.386,19.217,16.473c3.133,4.576,1.934,10.807-2.679,13.915
	c-4.611,3.109-10.892,1.919-14.025-2.658c-1.496-2.185-2.761-3.962-3.793-5.326c-1.362,1.781-2.882,3.977-4.291,6.052
	c-7.949,11.696-35.646,53.172-48.957,73.105l-4.556,6.822l-27.662,41.245c-0.609,0.927-1.165,1.788-1.67,2.58
	c1.785,0.058,3.883,0.092,6.291,0.103c17.618,0.085,82.808,0.06,102.884,0.031c0.265-0.021,0.533-0.031,0.804-0.031h59.048
	c1.083-0.009,3.154-0.024,5.325-0.091c-0.626-0.984-1.332-2.072-2.123-3.265c-3.345-5.057-21.653-32.366-39.266-58.612
	l-5.063,25.461c-0.949,4.773-5.17,8.08-9.895,8.081c-0.649,0-1.306-0.062-1.966-0.191c-5.471-1.071-9.03-6.339-7.95-11.767
	l9.805-49.3c0.519-2.607,2.059-4.902,4.283-6.381c2.225-1.479,4.951-2.022,7.578-1.507l49.69,9.729
	c5.471,1.071,9.03,6.339,7.95,11.767c-1.08,5.428-6.387,8.958-11.861,7.888l-25.887-5.069
	c17.671,26.333,36.089,53.806,39.463,58.907C431.267,486.626,436.941,495.196,432.498,503.443z"/>
<g>
</g>
<g>
</g>
<g>
</g>
<g>
</g>
<g>
</g>
<g>
</g>
<g>
</g>
<g>
</g>
<g>
</g>
<g>
</g>
<g>
</g>
<g>
</g>
<g>
</g>
<g>
</g>
<g>
</g>
</svg>
