<?xml version="1.0" encoding="iso-8859-1"?>
<!-- Generator: Adobe Illustrator 19.0.0, SVG Export Plug-In . SVG Version: 6.00 Build 0)  -->
<svg version="1.1" id="Layer_1" xmlns="http://www.w3.org/2000/svg" xmlns:xlink="http://www.w3.org/1999/xlink" x="0px" y="0px"
	 viewBox="0 0 512 512" style="enable-background:new 0 0 512 512;" xml:space="preserve">
<path style="fill:#757575;" d="M161.411,415.661v83.531c0,5.533-4.484,10.017-10.017,10.017c-5.533,0-10.017-4.484-10.017-10.017
	v-83.531c0-5.533,4.484-10.017,10.017-10.017C156.927,405.643,161.411,410.128,161.411,415.661z M360.612,405.643
	c-5.533,0-10.017,4.484-10.017,10.017v83.531c0,5.533,4.484,10.017,10.017,10.017c5.533,0,10.017-4.484,10.017-10.017v-83.531
	C370.629,410.128,366.145,405.643,360.612,405.643z"/>
<path style="fill:#A0A0A0;" d="M464.365,501.983c0,5.533-4.484,10.017-10.017,10.017H57.658c-5.533,0-10.017-4.484-10.017-10.017
	c0-5.533,4.484-10.017,10.017-10.017h396.69C459.881,491.965,464.365,496.45,464.365,501.983z"/>
<path style="fill:#78A097;" d="M81.181,0h349.641c20.108,0,38.127,16.489,36.561,36.493L438.82,401.427
	c-1.564,20.009-16.455,36.494-36.567,36.494H109.747c-20.108,0-34.997-16.482-36.563-36.494L44.616,36.493
	C43.05,16.481,61.069,0,81.181,0L81.181,0z"/>
<path style="fill:#5B7F81;" d="M458.913,144.696l-20.095,256.731c-1.564,20.009-16.455,36.494-36.567,36.494H109.747
	c-20.108,0-34.997-16.482-36.563-36.494L53.087,144.696H458.913z"/>
<path style="fill:#415E5C;" d="M447.438,291.308l-8.619,110.119c-1.564,20.009-16.455,36.494-36.567,36.494H109.747
	c-20.108,0-34.997-16.482-36.563-36.494l-8.621-110.119H447.438z"/>
<path style="fill:#5B7F81;" d="M328.832,122.435l-24.696,315.487h-96.273l-24.695-315.487H328.832z"/>
<path style="fill:#78A097;" d="M329.703,111.304l-14.09,180.004H196.388l-14.091-180.004H329.703z"/>
<path style="fill:#97BAA8;" d="M184.911,144.696L173.584,0h164.832l-11.326,144.696H184.911z"/>
<g>
</g>
<g>
</g>
<g>
</g>
<g>
</g>
<g>
</g>
<g>
</g>
<g>
</g>
<g>
</g>
<g>
</g>
<g>
</g>
<g>
</g>
<g>
</g>
<g>
</g>
<g>
</g>
<g>
</g>
</svg>
