<?xml version="1.0" encoding="iso-8859-1"?>
<!-- Generator: Adobe Illustrator 19.0.0, SVG Export Plug-In . SVG Version: 6.00 Build 0)  -->
<svg version="1.1" id="Layer_1" xmlns="http://www.w3.org/2000/svg" xmlns:xlink="http://www.w3.org/1999/xlink" x="0px" y="0px"
	 viewBox="0 0 512 512" style="enable-background:new 0 0 512 512;" xml:space="preserve">
<path style="fill:#828282;" d="M509.405,136.037c-1.987,2.176-4.723,3.282-7.471,3.282c-2.403,0-4.815-0.847-6.739-2.566
	l-43.24-38.619c-4.124-3.683-4.449-9.976-0.725-14.056c3.723-4.079,10.085-4.401,14.21-0.717l43.241,38.619
	C512.806,125.665,513.131,131.958,509.405,136.037z M422.381,129.573c-4.046-3.765-10.414-3.575-14.221,0.43
	c-3.808,4.003-3.613,10.301,0.434,14.067l43.212,40.208c1.943,1.808,4.419,2.704,6.892,2.704c2.678,0,5.35-1.052,7.329-3.132
	c3.808-4.004,3.613-10.301-0.434-14.068L422.381,129.573z"/>
<path style="fill:#B1CD3E;" d="M407.622,80.023c-3.221,4.478-9.504,5.524-14.03,2.337c-4.093-2.881-24.159-15.578-28.402-18.168
	c-35.616-21.739-76.328-33.16-118.638-33.16c-124.853,0-226.43,100.471-226.43,223.965c0,110.379,79.804,203.342,189.756,221.044
	c5.485,0.883,9.207,5.997,8.313,11.421c-0.804,4.883-5.073,8.354-9.918,8.354c-0.538,0-1.081-0.042-1.628-0.13
	c-57.095-9.193-109.397-38.295-147.27-81.95C21.087,369.607,0,313.232,0,254.999c0-65.141,25.646-126.382,72.212-172.442
	s108.482-71.427,174.34-71.427c47.219,0,92.614,13.068,132.086,37.91c3.626,2.283,23.098,14.625,26.621,17.105
	C409.786,69.333,410.844,75.547,407.622,80.023z"/>
<path style="fill:#677C0F;" d="M481.024,86.074l-68.096,75.056l-30.209-26.811c-16.608-14.744-18.002-40.253-3.095-56.685
	l13.89-15.307c14.904-16.431,40.693-17.811,57.304-3.064L481.024,86.074L481.024,86.074z"/>
<path style="fill:#CDE044;" d="M198.625,494.391c-1.76-17.668-1.592-35.802,0.718-54.16
	c16.792-133.385,139.717-228.05,274.568-211.445c8.813,1.087,17.466,2.632,25.923,4.589c1.76,17.668,1.595,35.802-0.718,54.16
	C482.33,420.92,359.402,515.586,224.548,498.98C215.735,497.892,207.09,496.347,198.625,494.391L198.625,494.391z"/>
<path style="fill:#B1CD3E;" d="M224.548,498.98c-8.813-1.087-17.459-2.632-25.923-4.589l301.208-261.016
	c1.76,17.668,1.595,35.802-0.718,54.16C482.33,420.92,359.402,515.585,224.548,498.98z"/>
<path style="fill:#677C0F;" d="M365.915,349.323c3.692,4.182,3.259,10.532-0.968,14.184L210.61,496.849
	c-4.033-0.73-8.031-1.545-11.985-2.459c-0.431-4.33-0.743-8.687-0.939-13.068l153.889-132.956
	C355.804,344.714,362.223,345.143,365.915,349.323z"/>
<g>
</g>
<g>
</g>
<g>
</g>
<g>
</g>
<g>
</g>
<g>
</g>
<g>
</g>
<g>
</g>
<g>
</g>
<g>
</g>
<g>
</g>
<g>
</g>
<g>
</g>
<g>
</g>
<g>
</g>
</svg>
