<?xml version="1.0" encoding="iso-8859-1"?>
<!-- Generator: Adobe Illustrator 19.0.0, SVG Export Plug-In . SVG Version: 6.00 Build 0)  -->
<svg version="1.1" id="Layer_1" xmlns="http://www.w3.org/2000/svg" xmlns:xlink="http://www.w3.org/1999/xlink" x="0px" y="0px"
	 viewBox="0 0 512 512" style="enable-background:new 0 0 512 512;" xml:space="preserve">
<path style="fill:#FF9300;" d="M256,93.806c89.579,0,162.194,72.616,162.194,162.194S345.579,418.194,256,418.194
	c-89.576,0-162.194-72.616-162.194-162.194S166.424,93.806,256,93.806L256,93.806z"/>
<path style="fill:#FF7B00;" d="M418.194,256c0,89.577-72.616,162.194-162.194,162.194c-69.256,0-128.363-43.412-151.622-104.505
	c23.255,12.881,50.003,20.224,78.471,20.224c89.579,0,162.195-72.616,162.195-162.194c0-20.321-3.748-39.763-10.572-57.689
	C384.393,141.683,418.194,194.889,418.194,256z"/>
<path style="fill:#F49919;" d="M38.957,266.017H10.017C4.484,266.017,0,261.533,0,256c0-5.533,4.484-10.017,10.017-10.017h28.939
	c5.533,0,10.017,4.484,10.017,10.017C48.974,261.533,44.489,266.017,38.957,266.017z M73.016,138.785L47.98,124.331
	c-4.792-2.766-10.918-1.124-13.684,3.666c-2.766,4.792-1.124,10.918,3.666,13.684l25.036,14.455c1.577,0.91,3.3,1.343,5,1.343
	c3.462,0,6.83-1.796,8.685-5.01C79.448,147.679,77.807,141.552,73.016,138.785z M474.037,370.317l-25.036-14.454
	c-4.792-2.766-10.918-1.124-13.684,3.666c-2.766,4.792-1.124,10.918,3.666,13.684l25.036,14.454c1.577,0.91,3.3,1.343,5,1.343
	c3.462,0,6.83-1.796,8.685-5.01C480.47,379.211,478.829,373.083,474.037,370.317z M138.789,73.017
	c1.855,3.213,5.222,5.009,8.684,5.009c1.7,0,3.423-0.433,5.001-1.345c4.791-2.767,6.431-8.893,3.664-13.684l-14.458-25.035
	c-2.767-4.791-8.894-6.431-13.684-3.664c-4.791,2.767-6.431,8.893-3.664,13.684L138.789,73.017z M373.212,438.984
	c-2.766-4.791-8.892-6.431-13.684-3.665c-4.791,2.766-6.432,8.893-3.665,13.684l14.455,25.035c1.855,3.213,5.222,5.01,8.684,5.01
	c1.7,0,3.423-0.433,5-1.345c4.791-2.766,6.432-8.893,3.665-13.684L373.212,438.984z M62.998,355.863l-25.036,14.454
	c-4.792,2.766-6.432,8.893-3.666,13.684c1.855,3.213,5.222,5.01,8.685,5.01c1.7,0,3.423-0.433,5-1.343l25.035-14.453
	c4.792-2.766,6.432-8.893,3.666-13.684C73.917,354.739,67.789,353.099,62.998,355.863z M444.002,157.48c1.7,0,3.423-0.433,5-1.343
	l25.036-14.454c4.792-2.766,6.432-8.893,3.666-13.684c-2.766-4.791-8.893-6.431-13.684-3.666l-25.036,14.453
	c-4.792,2.766-6.432,8.893-3.666,13.684C437.172,155.684,440.54,157.48,444.002,157.48z M256,0c-5.533,0-10.017,4.484-10.017,10.017
	v28.939c0,5.533,4.484,10.017,10.017,10.017c5.533,0,10.017-4.484,10.017-10.017V10.017C266.017,4.484,261.533,0,256,0z
	 M256,463.027c-5.533,0-10.017,4.484-10.017,10.017v28.938c0,5.533,4.484,10.017,10.017,10.017c5.533,0,10.017-4.484,10.017-10.017
	v-28.938C266.017,467.512,261.533,463.027,256,463.027z M152.471,435.318c-4.791-2.766-10.918-1.124-13.684,3.666l-14.453,25.035
	c-2.766,4.792-1.124,10.918,3.666,13.684c1.577,0.91,3.299,1.343,5,1.343c3.462,0,6.83-1.796,8.685-5.01l14.453-25.035
	C158.905,444.211,157.263,438.084,152.471,435.318z M501.983,245.983h-28.937c-5.533,0-10.017,4.484-10.017,10.017
	c0,5.533,4.484,10.017,10.017,10.017h28.937c5.533,0,10.017-4.484,10.017-10.017C512,250.467,507.516,245.983,501.983,245.983z
	 M359.529,76.682c1.577,0.91,3.3,1.343,5,1.343c3.462,0,6.83-1.796,8.685-5.01l14.453-25.035c2.766-4.792,1.124-10.918-3.666-13.684
	c-4.79-2.766-10.918-1.124-13.684,3.666l-14.455,25.035C353.095,67.789,354.737,73.916,359.529,76.682z"/>
<path style="fill:#677C0F;" d="M307.288,280.925c-9.834,14.767-42.25,63.451-46.516,69.95c-1.923,2.93-5.122,4.521-8.383,4.521
	c-1.887,0-3.793-0.532-5.488-1.645c-4.625-3.036-5.912-9.247-2.876-13.872c3.262-4.968,22.721-34.209,36.222-54.49h-46.461
	c-13.735-0.106-24.523-0.189-29.157-8.859c-4.589-8.583,1.494-17.844,7.933-27.649c4.217-6.427,29.668-44.668,45.049-67.771
	l-31.228,6.162c-5.424,1.074-10.695-2.46-11.767-7.888c-1.071-5.427,2.461-10.696,7.888-11.767l54.842-10.822
	c5.425-1.071,10.695,2.461,11.767,7.888l10.822,54.841c1.071,5.428-2.46,10.696-7.888,11.767c-0.654,0.129-1.308,0.191-1.95,0.191
	c-4.687,0-8.875-3.307-9.817-8.08l-6.118-31.002c-15.38,23.101-40.674,61.107-44.852,67.474c-1.336,2.034-2.463,3.803-3.38,5.304
	c3.063,0.139,6.353,0.164,7.934,0.177h65.087c3.693,0,7.088,2.032,8.831,5.288C309.523,273.9,309.334,277.851,307.288,280.925z"/>
<g>
</g>
<g>
</g>
<g>
</g>
<g>
</g>
<g>
</g>
<g>
</g>
<g>
</g>
<g>
</g>
<g>
</g>
<g>
</g>
<g>
</g>
<g>
</g>
<g>
</g>
<g>
</g>
<g>
</g>
</svg>
