<?xml version="1.0" encoding="iso-8859-1"?>
<!-- Generator: Adobe Illustrator 19.0.0, SVG Export Plug-In . SVG Version: 6.00 Build 0)  -->
<svg version="1.1" id="Layer_1" xmlns="http://www.w3.org/2000/svg" xmlns:xlink="http://www.w3.org/1999/xlink" x="0px" y="0px"
	 viewBox="0 0 512 512" style="enable-background:new 0 0 512 512;" xml:space="preserve">
<path style="fill:#CDE044;" d="M224.636,361.751c-28.487,0.362-91.719,0.325-97.259-0.088
	C69.448,357.35,21.043,312.041,14.624,252.008c-6.645-62.116,33.972-118.389,92.859-132.752
	c-5.85-59.251,36.995-112.262,96.093-118.627c59.406-6.398,112.727,36.743,119.102,96.358l0.087,0.92
	c12.768-11.869,29.323-19.867,47.955-21.874c45.439-4.895,86.285,27.628,92.059,72.907c0.073,0.577,0.141,3.141,0.204,3.721
	c24.775,25.378,38.466,61.264,34.393,99.345c-6.421,60.033-54.823,105.344-112.756,109.656c-5.54,0.413-68.768,0.45-97.257,0.088
	h-62.728V361.751z"/>
<path style="fill:#78A097;" d="M497.376,252.008c-6.421,60.033-54.823,105.344-112.756,109.656
	c-5.54,0.413-68.768,0.45-97.257,0.088h-50.559c13.861-21.035,34.805-52.774,49.277-74.579c2.045-3.081,2.232-7.04,0.487-10.302
	s-5.137-5.297-8.83-5.297h-74.257c-2.456-0.019-7.472-0.058-11.455-0.332c1.223-2.116,2.924-4.84,5.096-8.158
	c3.64-5.566,23.294-35.238,53.06-80.101l7.639,38.857c0.941,4.785,5.128,8.101,9.817,8.101c0.642,0,1.293-0.062,1.948-0.191
	c5.427-1.072,8.961-6.35,7.891-11.79l-12.34-62.78c-0.513-2.613-2.042-4.915-4.25-6.398c-2.207-1.483-4.913-2.026-7.52-1.509
	l-62.556,12.388c-5.427,1.074-8.958,6.355-7.885,11.795c1.073,5.439,6.345,8.979,11.769,7.903l38.952-7.713
	c-16.443,24.784-48.235,72.718-53.279,80.433c-7.416,11.333-13.821,21.121-8.977,30.195c4.896,9.17,16.829,9.264,32.016,9.382
	h55.657c-16.341,24.69-36.04,54.569-46.339,70.215c-31.253,0.232-80.488,0.158-85.346-0.204
	C69.45,357.352,21.045,312.042,14.626,252.009c-6.645-62.116,33.972-118.389,92.859-132.752
	C101.633,60.005,144.478,6.994,203.576,0.629c59.406-6.398,112.727,36.743,119.102,96.358l0.087,0.92
	c12.768-11.869,29.323-19.867,47.955-21.874c45.439-4.895,86.286,27.628,92.059,72.907c0.073,0.577,0.141,3.141,0.204,3.721
	C487.759,178.041,501.448,213.927,497.376,252.008z"/>
<g>
	<path style="fill:#5B7F81;" d="M259.45,420.978c-1.042,13.07-5.495,26.552-12.877,38.987c-11.873,20.01-30.19,35.921-51.575,44.802
		c-11.455,4.758-23.395,7.234-34.771,7.234c-1.317,0-2.623-0.033-3.922-0.1c-5.525-0.283-9.776-5.001-9.493-10.538
		c0.282-5.537,4.994-9.79,10.515-9.514c9.583,0.493,19.955-1.457,30.003-5.631c17.421-7.234,32.346-20.203,42.026-36.518
		c5.826-9.811,9.326-20.295,10.125-30.319c0.441-5.526,5.268-9.641,10.783-9.208C255.776,410.613,259.89,415.451,259.45,420.978z
		 M373.518,410.171c-5.515-0.443-10.342,3.684-10.781,9.21c-0.796,10.022-4.295,20.504-10.121,30.317
		c-9.682,16.314-24.606,29.284-42.023,36.518c-10.053,4.174-20.438,6.121-30.004,5.631c-5.537-0.281-10.233,3.977-10.516,9.514
		c-0.282,5.537,3.968,10.256,9.493,10.538c1.299,0.067,2.607,0.1,3.922,0.1c11.375,0,23.315-2.475,34.775-7.235
		c21.38-8.881,39.696-24.793,51.571-44.801c7.384-12.437,11.836-25.921,12.875-38.989
		C383.147,415.448,379.032,410.611,373.518,410.171z M127,410.171c-5.517-0.433-10.342,3.682-10.783,9.208
		c-0.798,10.02-4.299,20.503-10.121,30.318c-9.687,16.317-24.613,29.288-42.03,36.52c-10.05,4.174-20.424,6.12-30.003,5.631
		c-5.546-0.281-10.233,3.977-10.516,9.513c-0.283,5.537,3.968,10.256,9.493,10.538c1.3,0.067,2.608,0.1,3.923,0.1
		c11.376,0,23.315-2.475,34.771-7.234c21.38-8.878,39.698-24.789,51.58-44.806c7.381-12.44,11.832-25.921,12.872-38.983
		C136.628,415.451,132.514,410.613,127,410.171z"/>
	<path style="fill:#5B7F81;" d="M497.721,247.671c-0.1,1.361-0.217,2.725-0.364,4.092c-6.421,60.034-54.823,105.343-112.756,109.656
		c-5.54,0.413-68.768,0.45-97.257,0.088h-50.559c13.861-21.036,34.805-52.774,49.277-74.579c2.045-3.081,2.232-7.04,0.487-10.301
		c-1.744-3.262-5.137-5.297-8.83-5.297h-74.257c-2.456-0.019-7.472-0.058-11.455-0.332c1.223-2.116,2.924-4.84,5.096-8.158
		c3.64-5.567,23.294-35.238,53.06-80.101l7.639,38.857c0.941,4.785,5.128,8.101,9.817,8.101c0.642,0,1.293-0.062,1.948-0.191
		c5.427-1.072,8.961-6.35,7.891-11.79l-12.34-62.78c-0.513-2.613-2.042-4.915-4.25-6.398c-2.207-1.483-4.913-2.026-7.52-1.509
		l-62.556,12.388c-5.427,1.074-8.958,6.355-7.885,11.795c1.073,5.439,6.345,8.979,11.769,7.903l38.952-7.713
		c-16.443,24.784-48.235,72.718-53.279,80.433c-7.416,11.333-13.821,21.121-8.977,30.195c4.896,9.17,16.829,9.264,32.016,9.381
		h55.657c-16.341,24.69-36.04,54.569-46.339,70.215c-31.253,0.232-80.488,0.158-85.346-0.204
		c-42.208-3.142-79.338-28.061-98.877-64.569c18.622-27.069,46.778-47.338,80.216-55.493
		c-6.53-66.137,41.294-125.309,107.262-132.414c66.311-7.141,125.828,41.012,132.944,107.558l0.097,1.028
		c14.251-13.25,32.731-22.177,53.529-24.416C443.71,188.678,481.51,211.775,497.721,247.671z"/>
</g>
<g>
</g>
<g>
</g>
<g>
</g>
<g>
</g>
<g>
</g>
<g>
</g>
<g>
</g>
<g>
</g>
<g>
</g>
<g>
</g>
<g>
</g>
<g>
</g>
<g>
</g>
<g>
</g>
<g>
</g>
</svg>
