<?xml version="1.0" encoding="iso-8859-1"?>
<!-- Generator: Adobe Illustrator 19.0.0, SVG Export Plug-In . SVG Version: 6.00 Build 0)  -->
<svg version="1.1" id="Layer_1" xmlns="http://www.w3.org/2000/svg" xmlns:xlink="http://www.w3.org/1999/xlink" x="0px" y="0px"
	 viewBox="0 0 512.001 512.001" style="enable-background:new 0 0 512.001 512.001;" xml:space="preserve">
<path style="fill:#874D20;" d="M457.441,387.093c0,43.13-34.883,78.094-77.913,78.094H44.268C19.921,465.188,0,445.093,0,420.537
	V144.826c0-24.56,19.921-44.651,44.268-44.651h368.905c24.347,0,44.268,20.09,44.268,44.651v59.949V387.093z"/>
<path style="fill:#B1CD3E;" d="M252.068,489.626c-1.516-15.489-1.371-31.384,0.618-47.478
	c14.432-116.926,120.094-199.912,236.014-185.355c7.577,0.953,15.01,2.307,22.28,4.023c1.516,15.489,1.371,31.384-0.614,47.477
	c-14.434,116.926-120.097,199.911-236.011,185.355C266.771,492.695,259.342,491.341,252.068,489.626L252.068,489.626z"/>
<path style="fill:#CDE044;" d="M252.068,489.626c-1.516-15.489-1.371-31.384,0.618-47.478
	c14.432-116.926,120.094-199.912,236.014-185.355c7.577,0.953,15.01,2.307,22.28,4.023c0.076,0.769,0.128,1.543,0.195,2.313
	L253.001,489.834C252.691,489.762,252.377,489.699,252.068,489.626z"/>
<path style="fill:#391B10;" d="M331.62,16.697H125.826c-24.164,0-43.823,19.801-43.823,44.14v64.449
	c0,5.545,4.484,10.041,10.017,10.041h273.405c5.533,0,10.017-4.496,10.017-10.041V60.837
	C375.443,36.498,355.784,16.697,331.62,16.697z M355.408,115.245h-253.37V60.837c0-13.266,10.671-24.058,23.788-24.058H331.62
	c13.117,0,23.788,10.792,23.788,24.058V115.245z"/>
<path style="fill:#677C0F;" d="M393.14,378.341L264.373,492.137c-4.148-0.725-8.253-1.556-12.307-2.511
	c-0.41-4.183-0.687-8.397-0.85-12.635l128.673-113.713c4.149-3.668,10.479-3.268,14.139,0.892
	C397.688,368.33,397.29,374.674,393.14,378.341z"/>
<path style="fill:#FCE64C;" d="M268.857,199.383v54c0,5.545-4.484,10.041-10.017,10.041h-60.232
	c-5.533,0-10.017-4.496-10.017-10.041v-54L268.857,199.383L268.857,199.383z"/>
<path style="fill:#A57541;" d="M457.441,139.588v23.414l-197.633,76.336c-17.297,6.682-48.149,5.694-68.563-2.19L0,163.28v-23.692
	c0-24.56,19.921-44.651,44.268-44.651h368.905C437.52,94.936,457.441,115.028,457.441,139.588z"/>
<g>
</g>
<g>
</g>
<g>
</g>
<g>
</g>
<g>
</g>
<g>
</g>
<g>
</g>
<g>
</g>
<g>
</g>
<g>
</g>
<g>
</g>
<g>
</g>
<g>
</g>
<g>
</g>
<g>
</g>
</svg>
