<?xml version="1.0" encoding="iso-8859-1"?>
<!-- Generator: Adobe Illustrator 19.0.0, SVG Export Plug-In . SVG Version: 6.00 Build 0)  -->
<svg version="1.1" id="Layer_1" xmlns="http://www.w3.org/2000/svg" xmlns:xlink="http://www.w3.org/1999/xlink" x="0px" y="0px"
	 viewBox="0 0 512 512" style="enable-background:new 0 0 512 512;" xml:space="preserve">
<path style="fill:#909E9A;" d="M368.368,55.715v66.286H144.696V55.716c0-6.154,4.994-11.14,11.148-11.13l22.69,0.036
	c3.09,26.214,40.27,38.518,77.467,38.034c37.196,0.484,74.376-11.819,77.469-38.034l23.752-0.037
	C363.375,44.574,368.368,49.56,368.368,55.715z"/>
<path style="fill:#FFD63E;" d="M512,119.108l-39.651,84.456l-75.156-34.804v247.597H114.807V168.76l-75.154,34.804L0,119.108
	l114.807-74.586l41.464,0.065v1.323l0.151,1.281c2.367,20.084,16.236,36.661,39.052,46.679
	c16.592,7.285,38.076,11.163,60.524,10.894c0.701,0.008,1.4,0.012,2.1,0.012c21.683,0,42.349-3.849,58.424-10.906
	c22.815-10.017,36.685-26.594,39.055-46.677l0.151-1.282v-1.326l41.464-0.065L512,119.108z"/>
<path style="fill:#F4BB19;" d="M512,119.108l-39.651,84.456l-75.156-34.804v247.597H256V104.764c0.701,0.008,1.4,0.012,2.099,0.012
	c21.683,0,42.349-3.849,58.424-10.906c22.815-10.017,36.685-26.594,39.054-46.677l0.151-1.282v-1.326l41.464-0.065L512,119.108z"/>
<path style="fill:#7E9822;" d="M465.818,459.333c-4.272,7.934-13.894,8.007-25.036,8.093h-51.519
	c-0.243,0.018-0.487,0.027-0.733,0.028c-8.238,0.012-26.562,0.025-44.991,0.025c-19.253,0-38.624-0.013-46.762-0.052
	c-11.542-0.055-21.512-0.102-25.86-8.117c-4.217-7.772,0.997-15.722,6.039-23.41l27.264-40.703
	c11.153-16.72,37.269-55.875,44.605-66.679c2.985-4.401,5.475-7.844,7.917-10.323c3.939-4,8.247-5.819,12.809-5.421
	c7.989,0.707,12.753,7.672,17.795,15.047c3.108,4.546,1.918,10.732-2.659,13.82c-4.578,3.088-10.808,1.904-13.914-2.641
	c-0.919-1.345-1.737-2.509-2.45-3.492c-0.972,1.332-1.983,2.803-2.884,4.132c-7.293,10.741-33.378,49.848-44.517,66.548
	l-2.776,4.161l-24.458,36.496c-0.144,0.22-0.285,0.435-0.422,0.646c1.095,0.021,2.298,0.036,3.607,0.041
	c15.662,0.076,73.121,0.053,90.879,0.029c0.253-0.019,0.506-0.029,0.764-0.029h52.191c0.614-0.004,1.605-0.012,2.748-0.033
	c-0.263-0.402-0.538-0.821-0.825-1.255c-2.694-4.07-17.181-25.706-33.237-49.657l-3.96,19.942c-0.942,4.74-5.13,8.025-9.817,8.025
	c-0.643,0-1.294-0.061-1.949-0.189c-5.427-1.063-8.96-6.295-7.889-11.686l8.664-43.62c0.514-2.589,2.042-4.868,4.25-6.339
	c2.207-1.469,4.911-2.008,7.517-1.497l43.921,8.608c5.427,1.064,8.959,6.297,7.888,11.687c-1.072,5.39-6.342,8.897-11.767,7.834
	l-20.304-3.979c16.126,24.056,30.711,45.836,33.431,49.947C464.865,443.625,470.052,451.468,465.818,459.333z"/>
<g>
</g>
<g>
</g>
<g>
</g>
<g>
</g>
<g>
</g>
<g>
</g>
<g>
</g>
<g>
</g>
<g>
</g>
<g>
</g>
<g>
</g>
<g>
</g>
<g>
</g>
<g>
</g>
<g>
</g>
</svg>
