<?xml version="1.0" encoding="iso-8859-1"?>
<!-- Generator: Adobe Illustrator 19.0.0, SVG Export Plug-In . SVG Version: 6.00 Build 0)  -->
<svg version="1.1" id="Layer_1" xmlns="http://www.w3.org/2000/svg" xmlns:xlink="http://www.w3.org/1999/xlink" x="0px" y="0px"
	 viewBox="0 0 512 512" style="enable-background:new 0 0 512 512;" xml:space="preserve">
<path style="fill:#BCA475;" d="M89.049,113.509l-0.006-0.001L256,0l166.957,113.508l-0.003,0.001V512H89.049V113.509L89.049,113.509
	z"/>
<path style="fill:#AF9669;" d="M422.957,113.508l-0.003,0.001V512H256V0L422.957,113.508z"/>
<path style="fill:#663310;" d="M266.017,93.966v0.095c0,5.533-4.484,10.017-10.017,10.017c-5.533,0-10.017-4.484-10.017-10.017
	c0-5.533,4.484-10.064,10.017-10.064C261.533,83.997,266.017,88.434,266.017,93.966z"/>
<path style="fill:#677C0F;" d="M361.52,428.091c-4.398,8.239-14.649,8.319-26.517,8.411h-56.235c-0.252,0.02-0.506,0.029-0.762,0.03
	c-9.015,0.013-29.069,0.027-49.218,0.027c-20.966,0-42.034-0.014-50.871-0.057c-12.307-0.059-22.936-0.11-27.418-8.44
	c-4.336-8.062,0.959-16.166,6.567-24.745l29.568-44.334c12.203-18.371,40.782-61.392,48.819-73.279
	c3.339-4.939,5.934-8.534,8.541-11.188c4.089-4.172,8.537-6.076,13.225-5.661c8.274,0.736,13.354,8.193,18.733,16.088
	c3.114,4.572,1.933,10.804-2.639,13.919c-4.572,3.117-10.803,1.933-13.919-2.639c-1.338-1.965-2.483-3.586-3.432-4.86
	c-1.251,1.664-2.628,3.665-3.912,5.565c-7.992,11.819-37.587,56.371-48.728,73.143l-2.866,4.313l-26.673,39.975
	c-0.469,0.718-0.905,1.394-1.309,2.027c1.602,0.047,3.448,0.075,5.538,0.085c17.055,0.082,79.842,0.058,99.186,0.031
	c0.26-0.021,0.525-0.031,0.791-0.031h56.934c0.954-0.008,2.71-0.021,4.605-0.072c-0.526-0.825-1.109-1.722-1.746-2.69
	c-3.104-4.72-20.232-30.401-37.488-56.248l-4.749,24.004c-0.944,4.771-5.131,8.074-9.816,8.075c-0.646,0-1.299-0.063-1.956-0.193
	c-5.427-1.073-8.956-6.343-7.883-11.772l9.454-47.781c1.072-5.424,6.335-8.956,11.76-7.885l47.911,9.429
	c5.428,1.069,8.963,6.334,7.895,11.763c-1.069,5.428-6.339,8.962-11.763,7.895l-24.268-4.776
	c17.303,25.918,34.509,51.713,37.639,56.472C360.357,411.552,365.875,419.93,361.52,428.091z"/>
<g>
</g>
<g>
</g>
<g>
</g>
<g>
</g>
<g>
</g>
<g>
</g>
<g>
</g>
<g>
</g>
<g>
</g>
<g>
</g>
<g>
</g>
<g>
</g>
<g>
</g>
<g>
</g>
<g>
</g>
</svg>
