<?xml version="1.0" encoding="iso-8859-1"?>
<!-- Generator: Adobe Illustrator 19.0.0, SVG Export Plug-In . SVG Version: 6.00 Build 0)  -->
<svg version="1.1" id="Layer_1" xmlns="http://www.w3.org/2000/svg" xmlns:xlink="http://www.w3.org/1999/xlink" x="0px" y="0px"
	 viewBox="0 0 512 512" style="enable-background:new 0 0 512 512;" xml:space="preserve">
<path style="fill:#5B7F81;" d="M349.687,310.616c0,94.285-77.036,170.714-172.061,170.714S5.566,404.901,5.566,310.616
	C5.566,207.402,118.455,76.003,177.627,0C236.799,76.003,349.687,207.402,349.687,310.616z"/>
<path style="fill:#415E5C;" d="M349.687,310.616c0,94.285-77.036,170.714-172.061,170.714S5.566,404.901,5.566,310.616
	c0-41.053,17.869-86.566,43.104-131.278c5.319,66.048,61.021,118,128.956,118s123.637-51.954,128.956-118
	C331.818,224.05,349.687,269.562,349.687,310.616z"/>
<path style="fill:#FFCE76;" d="M481.995,404.671c-5.635,16.816-11.218,33.261-16.602,48.774
	c-5.268,15.176-10.833,30.848-16.729,46.988c-2.6,7.148-8.761,11.481-15.263,11.484V512h-42.401h-39.706H294.71
	c-9.144,0-16.558-8.287-16.558-18.509c0-0.265,0.007-0.532,0.016-0.794c-1.192-29.292-13-42.441-21.501-51.908
	c-3.226-3.596-6.123-6.823-8.627-10.493c-17.87-26.18-26.131-48.48-35.9-74.867c-4.188-11.306-8.678-23.439-15.037-38.334
	c-2.904-6.807-7.139-22.15-7.445-28.635c-0.775-16.105,5.265-35.944,22.3-36.539c7.378-0.255,15.489,1.869,20.598,5.379
	c9.937,6.83,17.631,18.209,23.82,30.13c4.87,9.39,6.983,21.12,10.358,29.247c1.278,3.086,2.533,5.72,3.751,7.933
	c11.015,20.007,33.554,9.125,40.737-13.678c8.646-27.449,18.508-65.825,19.502-91.357c1.067-27.194,2.1-53.447,14.945-66.985
	c14.056-14.826,29.274-17.281,46.27-10.617l4.555,29.123c24.554-13.579,39.817,3.6,48.944,24.598
	c9.121,20.969,12.062,29.365,12.308,37.62h19.079c3.187,0.351,10.582,4.547,11.432,6.115c8.102,14.842,14.415,29.569,16.838,44.67
	C510.344,318.447,499.651,351.951,481.995,404.671z"/>
<path style="fill:#FFA754;" d="M415.035,243.994c-7.688,34.597-14.531,64.813-20.408,84.208c-1.517,5.006-6.125,8.234-11.108,8.234
	c-1.172,0-2.363-0.178-3.541-0.554c-6.089-1.941-9.313-8.625-7.472-14.732c5.622-18.645,12.323-48.254,19.86-82.172
	c3.495-15.733,2.611-34.32,0.614-55.226c-0.431-4.508,0.815-9.021,3.517-12.659c7.027-3.887,13.284-5.229,18.863-4.707v0.706
	C415.131,167.171,419.771,222.673,415.035,243.994z M476.828,233.313h-19.079c-0.007-0.208-0.016-0.416-0.026-0.624
	c-0.224,2.116-0.552,4.444-0.937,7.178c-0.376,2.682-0.907,5.761-1.618,9.384c-1.92,9.662-3.636,19.059-5.298,28.147
	c-3.853,21.081-7.492,40.992-12.619,58.082c-1.839,6.128,1.651,12.584,7.794,14.419c1.111,0.332,2.231,0.49,3.334,0.49
	c4.996-0.001,9.612-3.245,11.118-8.265c5.495-18.316,9.245-38.841,13.216-60.568c1.645-9.001,3.346-18.31,5.236-27.824
	c0.798-4.065,1.398-7.549,1.832-10.645c0.439-3.112,0.8-5.882,1.059-8.459C479.307,233.936,477.851,233.425,476.828,233.313z"/>
<g>
</g>
<g>
</g>
<g>
</g>
<g>
</g>
<g>
</g>
<g>
</g>
<g>
</g>
<g>
</g>
<g>
</g>
<g>
</g>
<g>
</g>
<g>
</g>
<g>
</g>
<g>
</g>
<g>
</g>
</svg>
